<?xml version="1.0" standalone="no"?>
<!DOCTYPE svg PUBLIC "-//W3C//DTD SVG 20010904//EN"
 "http://www.w3.org/TR/2001/REC-SVG-20010904/DTD/svg10.dtd">
<svg version="1.0" xmlns="http://www.w3.org/2000/svg"
 width="528.000000pt" height="496.000000pt" viewBox="0 0 528.000000 496.000000"
 preserveAspectRatio="xMidYMid meet">

<g transform="translate(0.000000,496.000000) scale(0.100000,-0.100000)"
fill="#000000" stroke="none">
<path d="M0 2480 l0 -2480 2640 0 2640 0 0 1405 c0 1242 -2 1405 -15 1405 -8
0 -15 5 -15 10 0 6 7 10 15 10 13 0 15 125 15 1065 l0 1065 -1746 0 -1746 0
16 -24 c48 -75 76 -157 76 -228 0 -35 -25 -17 -126 87 -109 112 -153 140 -208
130 -23 -5 -36 -2 -45 9 -22 26 -37 19 -71 -34 -18 -27 -34 -50 -36 -50 -2 0
-15 18 -29 40 -26 41 -48 50 -62 27 -4 -7 -23 -25 -41 -40 -33 -26 -34 -27
-62 -10 -19 11 -32 29 -37 52 l-9 36 -577 3 -577 2 0 -2480z m4925 2342 c0
-18 -20 -15 -23 4 -3 10 1 15 10 12 7 -3 13 -10 13 -16z m-55 -76 c0 -8 -4
-17 -9 -21 -12 -7 -24 12 -16 25 9 15 25 12 25 -4z m200 -16 c0 -5 -5 -10 -11
-10 -5 0 -7 5 -4 10 3 6 8 10 11 10 2 0 4 -4 4 -10z m-309 -104 c1 -6 0 -17
-1 -25 -1 -8 4 -17 10 -21 7 -4 10 -16 8 -26 -3 -17 -4 -17 -18 -1 -8 10 -20
23 -26 30 -15 17 -25 47 -19 57 7 11 45 0 46 -14z m-94 -255 c9 -1 8 -11 -5
-38 -24 -54 -72 -119 -72 -100 0 12 -9 16 -36 15 -32 -1 -39 -6 -55 -42 -31
-69 -22 -98 17 -55 25 27 80 67 69 50 -4 -8 -35 -42 -69 -77 -33 -36 -69 -79
-78 -97 -16 -28 -18 -29 -18 -9 0 13 6 35 13 50 8 15 19 53 26 84 8 37 30 84
61 133 46 70 70 95 56 60 -3 -9 3 -19 15 -25 15 -8 18 -17 13 -33 -6 -20 -5
-20 14 3 18 22 19 28 7 56 -12 29 -11 30 9 28 11 -1 27 -3 33 -3z m-252 -593
c-9 -51 -29 -129 -45 -173 -27 -72 -54 -166 -81 -278 -5 -21 -11 -61 -12 -87
-3 -40 -1 -47 10 -39 7 7 13 18 13 25 0 8 7 14 15 14 9 0 20 11 25 24 5 13 25
36 45 52 20 15 43 41 52 58 9 17 26 40 38 51 15 14 22 33 23 63 1 50 19 112
32 112 5 0 10 21 12 48 4 67 22 58 24 -13 1 -33 7 -61 13 -63 6 -2 9 -8 6 -12
-3 -5 -1 -11 5 -15 6 -3 10 4 10 18 0 13 3 26 6 30 3 3 8 30 10 59 2 29 8 69
13 88 11 37 11 43 -4 -125 -9 -99 -9 -180 -1 -194 5 -8 4 -16 -4 -21 -22 -14
-17 -73 7 -97 13 -12 25 -18 28 -13 8 13 45 0 45 -16 0 -26 16 -14 29 21 15
43 30 45 38 5 3 -17 9 -32 13 -35 4 -3 24 10 43 29 38 36 47 32 47 -21 0 -16
7 -27 20 -30 10 -3 22 -14 26 -25 4 -14 14 -19 32 -17 32 2 82 -10 100 -24 26
-21 45 -80 46 -144 l0 -65 38 6 c47 8 52 -13 8 -32 -41 -19 -28 -33 23 -25 38
6 41 5 29 -10 -12 -14 -12 -21 -1 -47 8 -16 18 -30 23 -30 4 0 5 -8 2 -17 -4
-9 -3 -19 2 -22 5 -3 12 -16 16 -28 5 -17 3 -23 -8 -23 -30 0 -26 -20 11 -44
30 -20 33 -26 20 -32 -9 -3 -17 -12 -17 -19 0 -8 -9 -16 -19 -20 -12 -4 -18
-12 -14 -21 3 -8 -1 -14 -11 -14 -9 0 -16 -7 -16 -15 0 -8 -4 -15 -10 -15 -5
0 -10 -7 -10 -15 0 -26 -24 -95 -33 -95 -5 0 -8 -17 -7 -37 1 -21 1 -42 0 -48
-1 -5 -1 -14 0 -20 10 -44 10 -68 0 -80 -10 -12 -21 -10 -71 15 -57 29 -73 33
-133 27 -26 -2 -31 -8 -47 -57 -13 -38 -19 -86 -19 -152 0 -53 -3 -103 -6
-112 -8 -20 -33 -21 -40 -1 -4 8 -11 15 -16 15 -5 0 -26 17 -46 38 -20 21 -52
44 -69 51 -18 7 -33 19 -33 26 0 13 -86 72 -110 75 -51 8 -70 -2 -144 -77 -42
-42 -76 -79 -76 -83 0 -3 -16 -21 -35 -40 -19 -19 -35 -41 -35 -47 0 -7 -5
-13 -11 -13 -6 0 -31 -20 -56 -45 -41 -41 -72 -57 -74 -37 0 4 -2 21 -4 37 -4
30 31 137 67 202 9 18 20 55 24 84 l7 52 -39 -8 c-21 -4 -49 -7 -61 -7 -29 2
-95 -37 -86 -51 3 -6 1 -7 -5 -3 -6 4 -40 -15 -74 -41 -97 -75 -174 -123 -284
-178 -55 -28 -133 -73 -173 -101 -117 -80 -118 -80 -81 -40 43 47 134 107 258
171 111 57 227 138 309 215 32 31 85 78 117 105 61 51 156 158 156 176 0 5 -9
9 -20 9 -15 0 -20 7 -20 25 0 16 -7 28 -18 33 -29 11 -83 79 -80 99 3 16 -4
18 -72 15 -49 -3 -89 -11 -115 -24 -22 -11 -71 -24 -109 -29 -37 -5 -83 -18
-102 -30 -19 -11 -34 -18 -34 -14 0 3 -10 -3 -22 -15 -12 -11 -28 -20 -35 -20
-7 0 -21 -4 -31 -10 -23 -13 -198 -70 -214 -70 -7 0 -24 12 -37 25 -13 14 -27
25 -32 25 -22 0 -121 -40 -150 -61 -33 -23 -159 -39 -159 -19 0 5 5 10 10 10
20 0 9 27 -15 38 -25 11 -34 32 -15 32 6 0 10 11 10 25 0 14 -5 25 -11 25 -12
0 -39 25 -39 35 0 4 -9 19 -20 34 -19 28 -19 28 0 49 23 25 25 32 8 32 -37 1
-40 17 -13 66 20 36 28 66 31 114 2 36 1 56 -2 45 -11 -37 -19 -34 -35 16 -13
40 -13 49 -2 45 23 -9 14 8 -27 54 -22 25 -39 52 -40 60 0 17 19 50 21 35 3
-25 17 45 18 88 1 67 -43 157 -116 233 -57 59 -59 63 -54 105 l4 44 9 -32 c6
-25 12 -31 26 -26 14 5 15 3 5 -8 -15 -15 -17 -49 -4 -49 5 0 33 -21 63 -46
29 -25 63 -51 76 -57 16 -7 21 -16 16 -31 -3 -12 -2 -16 3 -11 11 13 43 15 43
2 0 -5 6 -15 14 -21 8 -6 16 -22 18 -36 2 -19 -1 -25 -14 -24 -10 1 -15 -2
-12 -8 3 -5 15 -6 27 -3 22 6 22 5 0 -11 -24 -17 -32 -67 -12 -79 6 -4 8 -13
5 -21 -7 -19 0 -18 24 3 13 12 20 30 20 55 0 21 3 38 8 38 4 0 8 16 10 36 1
20 9 45 16 56 8 11 12 27 9 35 -3 7 1 21 10 31 8 9 17 34 21 55 4 20 11 37 15
37 5 0 28 26 52 58 72 96 224 252 246 252 6 0 13 5 15 10 2 6 56 29 121 51
108 36 122 39 160 28 68 -18 176 -79 194 -110 9 -15 24 -30 32 -33 63 -22 141
-84 239 -190 28 -29 81 -62 95 -58 4 1 7 -2 7 -8 0 -5 6 -10 13 -10 7 0 21 21
31 48 39 102 126 362 127 379 1 16 2 16 6 1 2 -9 -3 -59 -12 -110z m177 70
c-9 -9 -15 -9 -24 0 -9 9 -7 12 12 12 19 0 21 -3 12 -12z m55 -40 c-3 -7 -5
-2 -5 12 0 14 2 19 5 13 2 -7 2 -19 0 -25z m-2662 2 c44 -6 39 -7 -45 -9 -111
-1 -153 -18 -179 -70 -11 -24 -37 -46 -91 -77 -59 -33 -74 -47 -73 -63 2 -14
-10 -29 -40 -50 -23 -16 -53 -39 -67 -52 -70 -63 -71 -63 -32 -4 42 61 39 90
-4 39 -13 -16 -23 -26 -24 -21 0 13 24 51 58 90 17 20 32 42 32 47 0 9 94 74
181 125 80 46 179 62 284 45z m225 -16 c0 -11 8 -15 28 -14 58 4 69 0 37 -14
-16 -7 -37 -11 -45 -9 -19 5 -72 -21 -63 -31 11 -10 -28 5 -54 22 -31 19 -29
30 5 31 56 1 63 3 69 17 7 19 23 18 23 -2z m295 -58 c40 -14 40 -14 -30 -9
-38 3 -73 8 -78 12 -14 14 69 11 108 -3z m-187 -130 c38 -19 90 -54 117 -79
47 -42 48 -45 27 -51 -24 -8 -31 -36 -8 -36 26 0 36 -24 22 -51 -11 -22 -10
-27 9 -41 14 -11 26 -13 36 -7 8 5 10 9 5 9 -5 0 -3 6 3 14 9 10 8 16 -4 26
-19 16 -19 30 0 30 8 0 21 -12 29 -28 11 -22 12 -31 1 -45 -7 -9 -17 -17 -24
-17 -20 0 -12 -20 12 -29 33 -13 117 -115 129 -157 6 -22 6 -62 2 -98 -4 -33
-8 -65 -9 -71 0 -13 -114 -10 -126 2 -6 6 13 10 51 10 33 0 62 2 65 5 3 3 1
17 -4 30 -13 33 -49 40 -120 21 -31 -8 -82 -16 -114 -17 -57 -2 -60 -1 -95 39
-62 69 -119 105 -167 105 -29 0 -45 5 -49 15 -3 8 -12 12 -21 9 -17 -7 -21 22
-5 46 8 13 10 12 10 -4 0 -17 3 -16 25 8 17 18 34 26 59 26 19 0 37 4 40 8 3
5 20 8 38 6 18 -1 46 0 61 3 26 4 27 6 13 22 -14 15 -14 19 0 40 13 17 14 28
6 46 -8 17 -7 26 6 38 14 15 14 18 -3 37 -10 11 -26 20 -35 20 -30 0 -105 -30
-135 -55 l-30 -24 44 15 c50 17 92 15 99 -4 2 -7 -9 -18 -25 -25 -17 -6 -28
-17 -26 -23 2 -7 -14 -11 -47 -10 -28 1 -54 -2 -56 -6 -3 -5 -10 -6 -15 -2 -6
3 -4 16 6 31 10 14 12 22 6 19 -16 -10 -14 15 5 59 9 23 13 51 10 70 -5 26 -1
36 26 62 29 27 48 37 81 42 4 0 38 -14 75 -33z m-660 -197 c-24 -16 -29 -9
-11 18 15 23 18 24 21 9 2 -10 -2 -22 -10 -27z m1202 21 c0 -5 -5 -10 -11 -10
-5 0 -7 5 -4 10 3 6 8 10 11 10 2 0 4 -4 4 -10z m-1145 -70 c-30 -31 -50 -39
-43 -18 4 10 53 45 67 47 3 1 -8 -12 -24 -29z m-375 -10 c-6 -11 -15 -20 -20
-20 -6 0 -10 9 -10 20 0 13 7 20 20 20 18 0 19 -3 10 -20z m261 -63 c-10 -9
-11 -8 -5 6 3 10 9 15 12 12 3 -3 0 -11 -7 -18z m-334 -59 c-7 -27 -17 -48
-24 -48 -22 0 -14 34 21 88 13 22 14 10 3 -40z m1741 41 c-2 -6 -8 -10 -13
-10 -5 0 -11 4 -13 10 -2 6 4 11 13 11 9 0 15 -5 13 -11z m-1598 -70 c0 -6
-27 -35 -59 -65 -56 -52 -76 -83 -83 -129 -2 -11 -9 -21 -16 -21 -6 -1 -16 -2
-20 -3 -5 0 -14 -12 -20 -26 -6 -14 -16 -25 -22 -25 -7 0 -8 5 -3 13 4 6 13
50 19 97 7 49 12 69 13 48 1 -43 17 -50 27 -12 7 28 54 85 54 65 0 -7 5 -9 10
-6 6 4 8 10 5 15 -3 4 4 6 15 3 23 -6 60 21 60 44 0 7 5 13 10 13 6 0 10 -5
10 -11z m1320 -24 c0 -13 -4 -26 -9 -29 -11 -7 -24 41 -16 55 10 15 25 0 25
-26z m-1470 -19 c0 -3 -4 -8 -10 -11 -5 -3 -10 -1 -10 4 0 6 5 11 10 11 6 0
10 -2 10 -4z m220 -43 c0 -5 -15 -16 -33 -26 l-32 -17 28 25 c30 26 37 30 37
18z m183 -22 c-3 -11 -13 -21 -24 -24 -12 -3 -17 -1 -12 6 22 39 45 50 36 18z
m1187 -95 c0 -11 -19 -15 -25 -6 -3 5 1 10 9 10 9 0 16 -2 16 -4z m-1653 -148
c-2 -13 -4 -3 -4 22 0 25 2 35 4 23 2 -13 2 -33 0 -45z m-32 -24 c-6 -34 -25
-48 -25 -19 0 8 5 15 11 15 7 0 9 9 6 21 -3 11 -3 28 1 37 6 15 7 15 10 -1 2
-11 1 -34 -3 -53z m1503 11 l-3 -50 -54 2 c-64 3 -115 29 -119 62 -5 35 14 42
101 39 l78 -3 -3 -50z m2602 27 c0 -15 -11 -21 -27 -15 -12 5 -12 7 -1 14 17
11 28 11 28 1z m-3931 -86 c-24 -24 -45 -40 -47 -35 -6 15 58 72 87 78 2 1
-16 -19 -40 -43z m345 -21 c-4 -8 -10 -15 -15 -15 -4 0 -6 7 -3 15 4 8 10 15
15 15 4 0 6 -7 3 -15z m-419 -56 c-4 -5 -15 -14 -27 -20 -21 -11 -20 -3 5 28
10 14 31 7 22 -8z m1490 -88 c-3 -12 -13 -21 -21 -21 -19 0 -18 10 4 30 21 21
26 18 17 -9z m-225 4 c-7 -8 -17 -15 -22 -15 -6 0 -5 7 2 15 7 8 17 15 22 15
6 0 5 -7 -2 -15z m270 -57 c21 -26 16 -48 -11 -48 -15 0 -18 7 -17 35 1 41 4
42 28 13z m-1185 -8 c-3 -5 -12 -10 -18 -10 -7 0 -6 4 3 10 19 12 23 12 15 0z
m1339 -45 c-4 -8 -10 -12 -15 -9 -11 6 -2 24 11 24 5 0 7 -7 4 -15z m-459 -44
c-3 -11 -1 -22 4 -26 7 -3 7 -14 1 -30 -8 -20 -5 -29 11 -44 18 -17 26 -52 28
-123 1 -23 30 -50 47 -44 7 3 16 2 18 -3 3 -4 33 -3 68 2 99 15 153 11 214
-17 47 -22 55 -29 49 -46 -4 -13 0 -31 9 -45 9 -13 16 -37 16 -52 0 -20 14
-41 55 -79 30 -29 55 -61 55 -71 0 -10 5 -25 10 -33 7 -11 10 -7 10 18 0 18 6
41 12 52 10 16 10 24 1 40 -7 10 -10 26 -7 34 9 22 39 12 42 -15 2 -13 10 -38
18 -56 8 -17 12 -37 9 -45 -6 -18 14 -42 53 -59 23 -10 32 -21 32 -37 0 -27
110 -201 128 -201 14 -1 16 -18 3 -23 -18 -6 10 -150 35 -180 l22 -27 6 31 c3
17 6 41 6 55 0 20 -4 23 -20 18 -17 -5 -20 -2 -20 21 l0 27 25 -23 c28 -26 33
-83 15 -162 -36 -162 -50 -382 -31 -481 5 -29 13 -98 16 -154 3 -57 13 -119
21 -138 7 -19 14 -51 14 -72 0 -43 22 -94 72 -173 44 -69 82 -146 112 -227
l23 -63 -133 1 c-133 0 -134 0 -134 23 0 21 -4 23 -42 19 -24 -2 -53 -4 -65
-4 -16 0 -20 -4 -16 -19 4 -14 0 -20 -11 -20 -10 0 -17 9 -17 23 l-2 22 -4
-23 c-4 -17 -11 -22 -38 -22 -18 0 -36 6 -39 13 -5 9 -7 9 -12 0 -3 -7 -21
-13 -39 -13 -35 0 -45 13 -45 56 0 14 -6 24 -14 24 -7 0 -16 8 -20 18 -3 9
-17 35 -31 57 -21 34 -31 35 -26 3 0 -4 2 -21 3 -37 1 -17 6 -31 11 -31 5 0 6
-7 3 -16 -4 -10 -2 -13 6 -8 7 5 9 2 5 -9 -4 -11 2 -19 21 -26 18 -6 21 -10 9
-10 -10 -1 -15 -5 -12 -11 3 -5 -3 -10 -15 -10 -12 0 -18 5 -15 10 3 6 1 10
-4 10 -6 0 -11 -4 -11 -9 0 -5 -56 -10 -125 -10 -88 0 -124 3 -119 10 5 8 -8
9 -42 5 -58 -8 -83 5 -86 47 -3 31 -1 30 -48 11 l-35 -14 33 3 c32 3 37 -4 33
-40 -1 -6 6 -13 16 -15 10 -2 -26 -5 -80 -6 -92 -2 -98 -1 -108 21 l-10 22 5
-22 c5 -26 -18 -32 -28 -7 -3 8 -10 12 -16 9 -6 -4 -8 -11 -5 -16 4 -5 2 -9
-2 -9 -12 0 -30 31 -38 69 l-7 33 -14 -27 c-10 -20 -11 -31 -3 -41 11 -14 5
-34 -12 -34 -5 0 -9 7 -9 15 0 8 -5 15 -11 15 -8 0 -7 6 2 16 12 15 11 16 -11
9 -14 -5 -33 -8 -43 -7 -10 0 -16 -5 -14 -11 2 -7 14 -11 25 -9 16 2 20 -1 16
-12 -5 -14 -34 -16 -203 -16 -113 0 -190 4 -182 9 9 6 10 10 2 16 -7 4 -18 1
-26 -5 -10 -8 -15 -9 -15 -2 0 12 36 26 48 18 4 -2 36 37 72 88 l64 92 23 -24
c31 -31 56 -25 64 15 8 42 26 63 49 58 12 -2 20 4 24 18 4 16 8 18 14 9 6 -8
24 -11 55 -7 26 2 47 1 47 -3 0 -13 -50 -30 -78 -27 -15 2 -35 1 -45 -2 -16
-4 -15 -7 8 -19 32 -16 55 -18 55 -4 0 6 10 5 26 -2 19 -9 24 -17 20 -34 -4
-16 -1 -23 14 -27 14 -3 20 -14 20 -31 0 -22 4 -26 33 -27 17 -1 39 -2 47 -3
20 -1 53 41 46 59 -3 8 -13 15 -21 15 -13 0 -15 -6 -10 -30 5 -23 3 -30 -9
-30 -9 0 -19 12 -22 26 -5 21 -11 24 -30 20 -27 -7 -30 -1 -9 20 10 10 29 13
64 10 53 -5 71 5 51 29 -9 11 -10 18 -1 29 12 15 -3 26 -37 26 -9 0 -24 15
-33 33 -9 17 -21 31 -25 31 -5 -1 -21 -4 -35 -7 -19 -5 -26 -3 -26 8 0 8 8 15
18 15 36 0 67 21 67 47 0 17 -4 21 -11 14 -7 -7 -14 -5 -23 7 -12 15 -15 15
-24 2 -7 -11 -9 -2 -6 32 2 26 0 46 -3 45 -8 -3 -11 8 -11 43 0 17 5 30 10 30
6 0 10 -7 10 -15 0 -8 5 -15 11 -15 7 0 9 9 6 21 -4 15 -2 19 8 15 11 -4 11 3
-3 31 -16 33 -17 34 -22 12 -5 -21 -7 -21 -13 -7 -9 25 1 46 25 54 12 3 17 11
14 21 -3 8 -6 19 -6 25 0 6 -7 8 -15 4 -10 -3 -15 1 -15 14 0 10 -4 21 -10 25
-14 9 0 34 16 28 9 -3 13 -12 10 -19 -3 -8 1 -14 8 -14 8 0 17 -6 20 -12 3 -7
3 -1 0 15 -7 30 -3 33 25 16 13 -9 23 -9 37 -1 17 10 16 12 -13 22 -18 7 -33
18 -33 26 0 8 -4 14 -10 14 -5 0 -10 16 -10 35 0 19 -4 35 -10 35 -5 0 -10 5
-10 11 0 6 8 9 18 7 9 -2 17 -10 17 -18 0 -8 6 -19 13 -23 6 -4 12 -13 12 -19
0 -21 33 -48 57 -48 14 0 21 4 18 10 -3 6 -1 10 5 10 7 0 5 7 -4 16 -18 17
-21 34 -6 34 14 0 32 -39 26 -56 -7 -19 2 -18 46 4 32 17 34 20 22 37 -13 17
-14 17 -14 1 0 -9 -4 -14 -10 -11 -5 3 -10 19 -10 36 0 33 -15 37 -42 12 -12
-11 -18 -12 -18 -3 0 7 -7 10 -15 6 -18 -7 -20 15 -2 33 10 11 9 13 -5 8 -10
-4 -18 -2 -18 3 0 5 17 14 38 19 31 9 39 8 51 -7 13 -16 13 -16 7 1 -5 16 -2
18 29 14 33 -5 34 -4 29 27 l-5 31 20 -35 c25 -45 118 -136 128 -126 4 4 0 14
-11 21 -43 32 -86 77 -86 90 0 9 6 12 15 9 21 -8 19 16 -2 32 -17 12 -17 13
-1 14 10 0 22 -9 28 -20 6 -11 8 -20 6 -20 -10 0 42 -84 54 -88 7 -3 2 9 -10
26 -13 17 -21 37 -18 44 7 18 -36 94 -51 90 -7 -1 -10 2 -6 7 3 6 -7 14 -22
17 -24 6 -25 8 -8 14 11 4 26 3 33 -2 25 -21 11 1 -23 35 -19 19 -35 44 -35
55 0 38 -24 45 -70 22 -40 -21 -41 -21 -31 -1 16 29 13 38 -5 15 -15 -18 -15
-18 -9 4 7 26 -2 28 -34 6 -33 -24 -96 -5 -105 32 -4 14 -4 29 -1 34 8 12 -5
13 -24 1 -15 -10 -41 -4 -41 8 0 4 16 13 35 21 24 9 32 17 25 24 -7 7 -13 7
-20 0 -6 -6 -31 -8 -62 -4 -29 4 -60 5 -69 3 -10 -3 -18 3 -22 16 -3 15 -13
21 -31 21 -16 0 -26 6 -26 14 0 8 -6 17 -12 20 -10 5 -10 7 0 12 6 3 12 10 12
16 0 10 -28 4 -78 -18 -18 -9 -40 -14 -50 -12 -12 3 -8 8 16 18 17 8 32 22 32
30 0 18 -19 40 -34 40 -6 0 -5 -5 2 -12 7 -7 12 -19 12 -27 0 -12 -2 -12 -12
2 -7 9 -22 18 -33 20 -11 1 -31 13 -43 25 -12 12 -30 22 -40 22 -10 0 -27 7
-38 15 -19 14 -19 14 2 15 17 0 21 7 22 33 1 29 -1 30 -13 14 -18 -24 -29 -4
-13 23 11 17 11 22 -2 31 -13 8 -11 13 10 30 54 45 33 76 -122 179 -37 25 -68
49 -68 54 0 5 3 6 7 3 3 -4 13 -1 22 7 9 8 30 17 47 20 28 6 32 4 57 -42 15
-27 25 -58 22 -70 -2 -15 3 -23 18 -29 12 -4 26 -6 32 -4 5 1 7 -1 2 -5 -4 -4
7 -13 25 -19 27 -8 36 -7 51 6 18 17 16 59 -5 85 -5 7 -3 16 6 23 10 9 16 8
26 -4 12 -14 15 -14 31 1 20 18 35 13 25 -8 -11 -24 -31 -53 -41 -60 -5 -4 -6
-10 -2 -14 10 -10 57 16 57 31 0 7 7 18 15 25 8 7 15 16 15 20 0 18 -52 69
-72 72 -38 5 -30 26 18 48 56 26 72 20 133 -45 32 -35 37 -45 28 -61 -9 -17
-9 -18 6 -5 15 11 21 11 44 -5 16 -11 48 -28 73 -39 87 -39 126 -64 195 -122
64 -53 70 -63 71 -98 1 -38 22 -65 51 -65 13 0 63 -89 63 -114 0 -8 -5 -16
-11 -18 -6 -2 0 -24 15 -55 34 -68 34 -86 0 -73 -35 14 -42 12 -20 -5 11 -8
28 -15 37 -15 10 0 21 -5 25 -12 5 -7 2 -9 -7 -4 -8 4 -3 -1 10 -12 l24 -20
-21 -6 c-28 -9 -29 -36 -2 -36 18 0 20 -7 20 -65 0 -53 3 -63 15 -59 9 4 15 0
15 -9 0 -8 -10 -17 -22 -20 -20 -6 -20 -8 -6 -29 13 -20 24 -23 79 -23 35 -1
71 -4 80 -9 12 -5 18 -1 23 16 12 47 8 58 -21 53 -30 -6 -55 9 -66 38 -4 10
-20 25 -37 35 -30 17 -34 32 -12 40 7 2 16 -6 20 -18 8 -21 10 -21 24 -6 15
15 38 22 38 12 0 -2 3 -11 6 -20 4 -11 1 -16 -10 -16 -9 0 -16 -5 -16 -11 0
-5 5 -7 10 -4 6 4 17 2 25 -5 17 -14 32 7 16 23 -6 6 -11 19 -11 28 0 18 -36
33 -46 18 -8 -14 -17 -11 -47 17 -22 20 -26 29 -17 38 8 7 14 7 16 1 10 -24
23 -39 30 -32 4 3 1 13 -6 22 -22 26 -2 29 27 4 69 -58 92 -82 88 -89 -3 -4 2
-13 10 -20 12 -10 16 -9 22 5 4 11 0 22 -10 30 -17 12 -24 45 -9 45 4 0 13 -5
19 -11 8 -8 17 -7 32 3 14 8 24 9 29 3 11 -16 50 -35 71 -35 11 0 23 -4 26
-10 9 -15 85 -13 85 3 0 19 -50 74 -56 61 -3 -7 -14 -10 -24 -7 -11 3 -17 10
-14 15 3 5 12 7 20 4 8 -3 14 -1 14 3 0 5 29 8 65 8 55 -1 68 2 87 21 20 20
21 22 4 22 -13 0 -16 5 -12 16 4 12 2 15 -9 10 -8 -3 -15 -1 -15 4 0 6 -11 10
-25 10 -14 0 -25 -4 -25 -8 0 -4 -9 -8 -20 -8 -11 0 -19 5 -17 11 2 5 12 8 22
7 16 -3 17 -1 6 12 -12 14 -16 14 -34 1 -12 -8 -28 -15 -35 -15 -7 0 -20 -7
-28 -15 -17 -17 -89 -20 -99 -5 -3 6 -17 10 -30 10 -19 0 -22 -4 -18 -22 l6
-23 -25 23 -25 22 -11 -22 c-6 -13 -11 -17 -11 -10 -1 7 -6 10 -11 7 -6 -4
-17 -1 -25 5 -12 10 -15 10 -15 -2 0 -8 5 -19 12 -26 9 -9 9 -12 0 -12 -6 0
-20 17 -30 38 -14 31 -22 37 -47 37 -19 0 -29 5 -27 13 1 7 -4 23 -13 35 -8
12 -15 36 -15 53 0 17 -6 37 -14 43 -10 8 -13 26 -11 54 2 22 -1 47 -8 55 -13
17 -57 36 -74 33 -18 -3 -16 9 3 23 17 13 9 50 -9 39 -6 -4 -8 0 -4 10 3 10 3
17 -2 17 -5 0 -12 -11 -15 -25 -4 -14 -11 -25 -17 -25 -8 0 -7 5 1 15 10 11
10 19 2 27 -6 6 -9 16 -8 22 2 6 1 8 -1 4 -9 -17 -31 -6 -103 52 -41 33 -79
60 -83 60 -5 0 -23 11 -40 24 -18 13 -49 31 -70 41 -20 9 -63 40 -95 69 -32
28 -77 68 -101 88 l-44 37 37 -6 c26 -4 36 -2 36 8 0 10 3 10 12 1 15 -15 42
-16 33 -2 -7 12 15 80 27 80 4 0 18 -14 30 -31 24 -32 75 -65 86 -54 3 3 0 20
-7 38 -33 80 -50 137 -45 150 4 11 16 14 44 10 42 -6 59 11 55 55 -1 12 2 22
7 22 5 0 22 13 37 29 16 17 45 33 65 36 20 4 36 11 36 16 0 5 5 9 11 9 6 0 8
-8 4 -19z m105 4 c0 -15 -24 -53 -31 -49 -13 8 -11 42 4 47 16 7 27 8 27 2z
m80 -25 c0 -5 -2 -10 -4 -10 -3 0 -8 5 -11 10 -3 6 -1 10 4 10 6 0 11 -4 11
-10z m-950 -14 c0 -2 -8 -10 -17 -17 -16 -13 -17 -12 -4 4 13 16 21 21 21 13z
m912 -28 c-9 -9 -12 -7 -12 12 0 19 3 21 12 12 9 -9 9 -15 0 -24z m-1362 -39
c-5 -16 -7 -36 -4 -44 3 -7 0 -16 -5 -20 -6 -3 -8 -12 -5 -18 5 -9 4 -9 -6 0
-10 9 -10 21 -2 55 8 32 8 44 -1 50 -8 5 -4 8 10 8 19 0 21 -3 13 -31z m88
-29 c-7 -10 -14 -17 -17 -15 -4 4 18 35 25 35 2 0 -1 -9 -8 -20z m1245 5 c-3
-9 -8 -14 -10 -11 -3 3 -2 9 2 15 9 16 15 13 8 -4z m332 -96 c11 -16 1 -19
-13 -3 -7 8 -8 14 -3 14 5 0 13 -5 16 -11z m1140 -49 c-3 -5 -11 -10 -16 -10
-6 0 -7 5 -4 10 3 6 11 10 16 10 6 0 7 -4 4 -10z m-2815 -160 c1 -23 3 -22 15
10 l13 35 12 -32 c7 -18 16 -33 21 -33 5 0 9 -6 9 -14 0 -8 8 -17 17 -20 35
-14 -7 -23 -92 -20 -65 2 -85 -1 -85 -11 0 -17 -33 -75 -42 -75 -11 0 -10 8 2
31 8 15 7 19 -5 19 -18 0 -20 16 -2 24 6 4 -3 4 -21 1 -42 -6 -33 10 10 19 39
8 115 44 124 58 4 6 7 25 7 42 -1 26 0 28 7 11 5 -11 9 -31 10 -45z m1795 -59
c9 -24 -2 -23 -29 2 -14 13 -23 27 -20 30 8 8 42 -14 49 -32z m-1458 13 c-3
-3 -12 -4 -19 -1 -8 3 -5 6 6 6 11 1 17 -2 13 -5z m79 -128 l54 -79 -33 -17
c-22 -12 -36 -29 -45 -56 l-12 -39 -70 -1 c-54 0 -70 3 -70 14 0 7 -6 12 -12
10 -7 -3 -18 1 -25 8 -15 15 -17 38 -3 29 6 -3 10 -1 10 4 0 6 7 11 15 11 17
0 22 69 6 86 -5 5 -11 30 -13 56 l-3 47 40 4 c102 10 104 9 161 -77z m-462 50
c-28 -21 -9 -32 20 -12 32 21 36 20 36 -5 0 -16 -4 -19 -20 -14 -15 5 -22 1
-28 -16 -8 -21 -9 -21 -21 9 -14 34 -8 52 17 52 13 0 13 -2 -4 -14z m206 -7
c0 -6 7 -9 15 -5 8 3 15 2 15 -3 0 -5 -13 -11 -29 -14 -16 -3 -36 -14 -46 -23
-27 -27 -37 2 -11 32 22 24 56 33 56 13z m328 -45 c18 -15 32 -31 32 -35 0
-17 -27 -9 -47 14 -46 51 -37 64 15 21z m-607 -8 c5 3 9 1 9 -4 0 -12 -26 -23
-33 -15 -3 3 -3 12 1 21 4 10 7 12 10 4 2 -7 8 -10 13 -6z m179 -35 c0 -22 -5
-43 -10 -46 -6 -4 -8 -15 -5 -24 3 -10 -4 -30 -16 -45 -12 -15 -30 -53 -40
-85 -9 -32 -27 -78 -38 -102 -11 -24 -27 -62 -36 -84 l-15 -40 3 78 c4 79 -6
97 -28 49 -5 -12 -16 -24 -25 -27 -12 -5 -13 -4 -2 6 18 19 15 33 -5 19 -10
-7 -5 -1 10 14 15 14 27 31 25 38 -1 7 8 35 20 62 13 28 20 56 18 63 -3 7 -1
13 4 13 6 0 10 -10 10 -22 0 -16 3 -19 11 -11 18 18 58 124 53 138 -5 11 35
41 59 44 4 1 7 -17 7 -38z m20 -56 c-7 -9 -15 -13 -17 -11 -7 7 7 26 19 26 6
0 6 -6 -2 -15z m-443 -57 c76 2 101 -11 134 -72 21 -41 22 -47 9 -86 -29 -87
-123 -120 -188 -65 -64 54 -99 190 -57 221 10 7 23 10 28 7 6 -4 39 -6 74 -5z
m983 -169 c27 -15 49 -39 50 -53 0 -5 -7 -3 -15 4 -12 10 -18 10 -29 1 -12
-10 -15 -8 -18 11 -2 15 -15 28 -35 37 -18 8 -33 18 -33 22 0 9 48 -4 80 -22z
m130 -103 c0 -3 -4 -8 -10 -11 -5 -3 -10 -1 -10 4 0 6 5 11 10 11 6 0 10 -2
10 -4z m30 -30 c0 -3 -4 -8 -10 -11 -5 -3 -10 -1 -10 4 0 6 5 11 10 11 6 0 10
-2 10 -4z m54 -22 c9 -3 16 -10 16 -14 0 -10 -38 -1 -46 11 -6 10 7 12 30 3z
m919 -68 c8 3 18 0 22 -6 9 -15 -13 -30 -32 -23 -7 3 -13 -1 -13 -8 0 -7 -7
-3 -16 9 -17 25 -10 49 11 32 7 -6 19 -8 28 -4z m135 -4 c2 -7 -3 -12 -11 -12
-9 0 -17 -5 -19 -12 -2 -6 -10 -8 -16 -4 -17 10 -15 26 3 26 8 0 15 5 15 11 0
14 23 6 28 -9z m-953 -2 c3 -5 1 -10 -4 -10 -6 0 -11 5 -11 10 0 6 2 10 4 10
3 0 8 -4 11 -10z m1040 0 c-3 -5 -10 -10 -16 -10 -5 0 -9 5 -9 10 0 6 7 10 16
10 8 0 12 -4 9 -10z m-160 -9 c3 -5 1 -12 -4 -15 -5 -3 -11 1 -15 9 -6 16 9
21 19 6z m-790 -21 c3 -5 2 -10 -4 -10 -5 0 -13 5 -16 10 -3 6 -2 10 4 10 5 0
13 -4 16 -10z m610 0 c3 -6 -4 -10 -17 -10 -18 0 -20 2 -8 10 19 12 18 12 25
0z m-1738 -187 c-2 -27 -3 -5 -3 47 0 52 1 74 3 48 2 -27 2 -69 0 -95z m1341
106 c-2 -19 2 -34 10 -36 6 -3 12 3 12 12 0 24 44 15 48 -9 5 -26 -21 -44 -53
-38 -32 6 -44 28 -38 70 7 41 24 42 21 1z m-135 -6 c-7 -2 -19 -2 -25 0 -7 3
-2 5 12 5 14 0 19 -2 13 -5z m447 -69 c0 -8 7 -14 15 -14 8 0 15 -7 15 -15 0
-12 -4 -13 -17 -6 -41 24 -55 41 -49 57 5 13 9 14 21 4 8 -7 15 -19 15 -26z
m76 -62 c-22 -5 -30 3 -21 18 5 8 11 7 22 -2 15 -12 14 -13 -1 -16z m-366 -22
c0 -5 -4 -10 -10 -10 -5 0 -10 5 -10 10 0 6 5 10 10 10 6 0 10 -4 10 -10z
m-40 -10 c0 -5 -6 -10 -14 -10 -8 0 -18 5 -21 10 -3 6 3 10 14 10 12 0 21 -4
21 -10z m-120 -40 c0 -5 -4 -10 -10 -10 -5 0 -10 5 -10 10 0 6 5 10 10 10 6 0
10 -4 10 -10z m85 -128 c-6 -7 -35 18 -35 31 0 5 9 2 20 -8 11 -10 18 -20 15
-23z m-155 -12 c0 -5 -5 -10 -11 -10 -5 0 -7 5 -4 10 3 6 8 10 11 10 2 0 4 -4
4 -10z m-1113 -22 c-3 -8 -6 -5 -6 6 -1 11 2 17 5 13 3 -3 4 -12 1 -19z m1083
1 c0 -6 -4 -7 -10 -4 -5 3 -10 11 -10 16 0 6 5 7 10 4 6 -3 10 -11 10 -16z
m-40 -14 c0 -8 -4 -15 -10 -15 -5 0 -10 7 -10 15 0 8 5 15 10 15 6 0 10 -7 10
-15z m-40 -5 c0 -5 -2 -10 -4 -10 -3 0 -8 5 -11 10 -3 6 -1 10 4 10 6 0 11 -4
11 -10z m98 -38 c3 -9 -2 -13 -14 -10 -9 1 -19 9 -22 16 -3 9 2 13 14 10 9 -1
19 -9 22 -16z m-132 -12 c8 0 14 -4 14 -9 0 -4 -17 -7 -37 -6 -55 3 -60 5 -38
15 11 5 26 7 33 4 8 -2 20 -4 28 -4z m84 -2 c0 -5 -4 -7 -9 -3 -5 3 -12 1 -16
-5 -4 -6 -11 -8 -16 -5 -17 11 -9 23 16 23 14 0 25 -5 25 -10z m-1043 -45 c-3
-10 -5 -4 -5 12 0 17 2 24 5 18 2 -7 2 -21 0 -30z m1111 9 c3 -9 -6 -12 -27
-10 -32 2 -41 12 -18 21 19 9 40 3 45 -11z m-188 -17 c23 -8 54 -14 68 -12 15
1 27 -2 27 -7 0 -18 -55 -13 -102 9 -56 27 -53 31 7 10z m-253 -53 c14 -30 19
-50 13 -56 -7 -7 -10 -4 -10 6 0 8 -6 21 -14 27 -15 12 -35 -1 -55 -37 -5 -9
-13 -13 -18 -9 -4 5 1 23 11 40 11 18 24 42 30 54 6 13 13 23 16 23 3 0 15
-21 27 -48z m-655 -12 c3 -16 1 -30 -4 -30 -4 0 -8 14 -8 30 0 17 2 30 4 30 2
0 6 -13 8 -30z m1075 4 c-9 -9 -28 6 -21 18 4 6 10 6 17 -1 6 -6 8 -13 4 -17z
m-133 1 c3 -8 11 -14 17 -13 6 2 14 -3 17 -11 3 -10 0 -12 -12 -8 -11 5 -20
-1 -28 -17 -6 -14 -19 -27 -30 -30 -19 -4 -19 -3 2 19 23 24 20 45 -6 45 -8 0
-14 4 -14 8 0 25 45 30 54 7z m-394 -26 c0 -5 -13 -15 -30 -20 -27 -10 -35
-23 -31 -55 1 -6 -4 -16 -12 -22 -9 -8 -12 -3 -12 23 0 27 7 39 34 60 38 27
51 31 51 14z m470 1 c8 -5 11 -10 5 -10 -5 0 -17 5 -25 10 -8 5 -10 10 -5 10
6 0 17 -5 25 -10z m65 0 c3 -5 1 -10 -4 -10 -6 0 -11 5 -11 10 0 6 2 10 4 10
3 0 8 -4 11 -10z m-30 -10 c3 -5 1 -10 -4 -10 -6 0 -11 5 -11 10 0 6 2 10 4
10 3 0 8 -4 11 -10z m-1041 -41 c13 -66 27 -266 22 -304 -4 -22 -7 -86 -7
-142 0 -96 -2 -103 -21 -103 -16 0 -19 5 -14 27 10 54 16 379 8 466 -7 85 -1
118 12 56z m1056 7 c0 -3 -4 -8 -10 -11 -5 -3 -10 -1 -10 4 0 6 5 11 10 11 6
0 10 -2 10 -4z m-366 -22 c8 -22 7 -34 -3 -34 -5 0 -11 11 -13 25 -6 28 6 34
16 9z m327 -13 c16 -16 29 -36 29 -45 0 -10 6 -13 15 -10 19 8 19 -7 0 -32
-12 -16 -14 -16 -15 -3 0 13 -10 16 -47 15 -49 -1 -73 21 -34 31 12 3 21 10
21 17 0 17 -37 36 -57 30 -10 -3 -7 2 7 10 36 22 48 20 81 -13z m-398 2 c-7
-17 -20 -17 -26 1 -4 10 0 14 12 13 11 -1 17 -7 14 -14z m7 -33 c0 -5 -6 -10
-14 -10 -8 0 -17 -6 -19 -12 -4 -10 -8 -9 -16 2 -8 12 -5 16 17 21 15 4 28 7
30 8 1 0 2 -3 2 -9z m96 -27 c-3 -8 -6 -17 -6 -19 0 -3 -4 -3 -9 0 -5 4 -21 2
-36 -4 -15 -6 -31 -8 -35 -5 -14 9 1 37 16 31 7 -3 18 1 24 9 14 17 53 7 46
-12z m-162 -35 c-13 -23 -38 -50 -56 -59 -15 -8 -18 -6 -18 11 0 12 13 28 33
40 37 23 51 25 41 8z m146 -54 c0 -8 -5 -12 -10 -9 -6 4 -8 11 -5 16 9 14 15
11 15 -7z m-299 -54 c5 0 9 -6 9 -14 0 -8 6 -16 12 -18 14 -5 18 -254 5 -276
-6 -9 -50 -12 -161 -12 l-153 0 -7 50 c-8 58 3 74 47 77 21 1 31 -5 39 -23 18
-39 31 -28 26 21 -7 57 4 65 31 21 18 -29 44 -45 74 -46 4 0 7 8 7 18 0 11 9
27 20 37 14 13 18 25 13 48 -5 22 -1 33 12 43 14 10 16 22 12 61 -3 26 -3 40
-1 31 3 -10 10 -18 15 -18z m350 4 c10 -13 16 -11 36 7 23 22 34 14 11 -9 -9
-9 -9 -18 1 -38 l12 -27 -27 18 c-27 17 -28 17 -44 -2 -9 -11 -27 -24 -41 -28
l-24 -7 22 21 c12 11 27 21 32 21 24 0 21 24 -5 46 -26 20 -26 22 -7 17 12 -3
28 -12 34 -19z m282 19 c-13 -2 -33 -2 -45 0 -13 2 -3 4 22 4 25 0 35 -2 23
-4z m-553 -28 c10 -12 10 -15 -2 -15 -8 0 -15 7 -15 15 0 8 1 15 2 15 2 0 8
-7 15 -15z m676 -46 c3 -5 14 -9 25 -9 23 0 25 -13 4 -30 -12 -10 -18 -9 -32
5 -16 17 -18 17 -31 -4 -18 -27 -48 -27 -62 0 -7 11 -9 23 -7 26 3 2 10 -5 17
-16 16 -31 30 -25 30 13 0 30 2 33 25 28 14 -2 28 -8 31 -13z m-601 -37 c-3
-3 -11 0 -18 7 -9 10 -8 11 6 5 10 -3 15 -9 12 -12z m120 -42 c-16 -16 -33
-30 -39 -30 -5 0 -18 -8 -29 -17 -19 -18 -19 -17 -6 5 8 12 17 22 21 22 4 0
19 11 34 25 38 35 54 31 19 -5z"/>
<path d="M4535 4260 c3 -5 8 -10 11 -10 2 0 4 5 4 10 0 6 -5 10 -11 10 -5 0
-7 -4 -4 -10z"/>
<path d="M2935 3060 c3 -5 8 -10 11 -10 2 0 4 5 4 10 0 6 -5 10 -11 10 -5 0
-7 -4 -4 -10z"/>
<path d="M3023 2773 c-7 -2 -13 -9 -13 -14 0 -6 6 -7 13 -4 6 4 4 0 -5 -8 -19
-15 -24 -37 -9 -37 13 0 24 18 27 47 1 12 2 23 1 22 -1 0 -8 -3 -14 -6z"/>
<path d="M3054 2717 c-12 -7 -19 -18 -17 -25 4 -9 -3 -11 -25 -7 -25 4 -31 1
-36 -18 -6 -23 23 -57 51 -57 7 0 13 -7 11 -16 -2 -10 5 -18 16 -20 10 -1 32
-16 48 -33 17 -17 34 -31 39 -31 5 0 9 -7 9 -15 0 -12 4 -13 25 -3 33 15 32
29 -4 53 -16 10 -28 22 -26 25 2 3 -13 40 -34 82 -34 71 -37 76 -57 65z m-17
-66 c15 13 17 1 4 -20 -8 -12 -12 -12 -25 2 -9 8 -16 19 -16 23 0 5 5 3 12 -4
8 -8 15 -9 25 -1z"/>
<path d="M3000 2570 c0 -5 5 -10 11 -10 5 0 7 5 4 10 -3 6 -8 10 -11 10 -2 0
-4 -4 -4 -10z"/>
<path d="M3056 2512 c-2 -4 0 -14 5 -22 8 -13 10 -13 18 -1 5 8 14 10 22 5 12
-6 12 -5 0 9 -14 18 -36 22 -45 9z"/>
<path d="M3085 2460 c-3 -5 -1 -10 4 -10 6 0 11 5 11 10 0 6 -2 10 -4 10 -3 0
-8 -4 -11 -10z"/>
<path d="M1680 3710 c-25 -22 -38 -40 -30 -40 8 0 35 18 60 40 25 21 38 39 30
39 -8 0 -35 -18 -60 -39z"/>
<path d="M1595 3650 c-3 -5 -1 -10 4 -10 6 0 11 5 11 10 0 6 -2 10 -4 10 -3 0
-8 -4 -11 -10z"/>
<path d="M2392 3300 c0 -14 2 -19 5 -12 2 6 2 18 0 25 -3 6 -5 1 -5 -13z"/>
<path d="M2498 3224 c-36 -19 -53 -51 -39 -68 19 -23 88 -28 116 -10 29 19 26
47 -9 76 -25 21 -33 21 -68 2z"/>
<path d="M2412 3153 c2 -21 9 -29 27 -31 16 -3 21 0 17 10 -3 7 -9 21 -12 31
-10 29 -36 21 -32 -10z"/>
<path d="M2586 2093 c-8 -53 -8 -155 2 -150 7 5 17 187 9 187 -2 0 -7 -17 -11
-37z"/>
<path d="M2124 1949 c0 -13 3 -15 13 -7 7 6 13 12 13 13 0 2 -6 5 -13 8 -7 3
-13 -3 -13 -14z"/>
<path d="M2570 1798 c0 -36 4 -35 14 5 4 16 2 27 -4 27 -5 0 -10 -14 -10 -32z"/>
<path d="M2772 1730 c-30 -28 -28 -40 8 -40 17 0 30 4 30 8 0 5 11 14 25 20
14 6 25 16 25 22 0 18 -65 11 -88 -10z"/>
<path d="M2996 1723 c-8 -8 45 -32 57 -26 4 2 7 11 7 19 0 14 -50 20 -64 7z"/>
<path d="M3100 1711 c0 -5 7 -14 15 -21 16 -14 18 -10 9 14 -6 17 -24 22 -24
7z"/>
<path d="M1988 1703 c7 -3 16 -2 19 1 4 3 -2 6 -13 5 -11 0 -14 -3 -6 -6z"/>
<path d="M2200 1689 c0 -5 11 -9 25 -9 14 0 25 2 25 4 0 2 -11 6 -25 8 -14 3
-25 1 -25 -3z"/>
<path d="M1870 1670 c-13 -9 -13 -11 0 -20 19 -12 35 -8 35 10 0 18 -16 22
-35 10z"/>
<path d="M1932 1661 c2 -7 7 -12 11 -12 12 1 9 15 -3 20 -7 2 -11 -2 -8 -8z"/>
<path d="M3000 1650 c0 -13 11 -13 30 0 12 8 11 10 -7 10 -13 0 -23 -4 -23
-10z"/>
<path d="M3085 1630 c3 -5 15 -10 26 -10 10 0 19 5 19 10 0 6 -12 10 -26 10
-14 0 -23 -4 -19 -10z"/>
<path d="M1990 1620 c0 -5 9 -10 19 -10 11 0 28 -3 38 -7 16 -6 16 -5 4 10
-14 18 -61 23 -61 7z"/>
<path d="M2992 1608 c5 -15 28 -18 29 -3 0 6 -7 12 -17 13 -10 3 -15 -1 -12
-10z"/>
<path d="M1943 1596 c4 -10 7 -20 7 -22 0 -2 14 -4 30 -4 33 0 41 15 13 23
-10 2 -27 8 -37 13 -16 6 -18 4 -13 -10z"/>
<path d="M2220 1600 c0 -6 18 -10 40 -10 22 0 40 4 40 8 0 5 -18 9 -40 10 -22
1 -40 -3 -40 -8z"/>
<path d="M2775 1600 c-3 -6 1 -17 9 -26 15 -14 16 -14 16 5 0 23 -16 36 -25
21z"/>
<path d="M3160 1592 c0 -13 35 -42 50 -42 9 0 5 9 -10 25 -24 25 -40 32 -40
17z"/>
<path d="M2877 1573 c-8 -13 20 -45 35 -41 9 2 7 9 -9 26 -11 13 -23 19 -26
15z"/>
<path d="M2022 1554 c4 -21 22 -23 26 -1 2 10 -3 17 -13 17 -10 0 -15 -6 -13
-16z"/>
<path d="M2275 1540 c-3 -5 -1 -10 4 -10 6 0 11 -9 11 -20 0 -13 7 -20 20 -20
18 0 18 1 2 30 -18 32 -27 36 -37 20z"/>
<path d="M2520 1535 c7 -8 17 -15 22 -15 6 0 5 7 -2 15 -7 8 -17 15 -22 15 -6
0 -5 -7 2 -15z"/>
<path d="M2975 1540 c3 -5 8 -10 11 -10 2 0 4 5 4 10 0 6 -5 10 -11 10 -5 0
-7 -4 -4 -10z"/>
<path d="M3050 1534 c0 -12 73 -34 107 -33 27 1 31 3 13 6 -14 2 -46 11 -72
18 -27 8 -48 12 -48 9z"/>
<path d="M2374 1521 c3 -5 22 -11 41 -13 19 -2 32 -1 27 3 -11 10 -74 20 -68
10z"/>
<path d="M2055 1500 c4 -6 11 -8 16 -5 14 9 11 15 -7 15 -8 0 -12 -5 -9 -10z"/>
<path d="M2187 1490 c10 -11 23 -20 30 -20 8 0 5 8 -7 20 -11 11 -24 20 -30
20 -5 0 -2 -9 7 -20z"/>
<path d="M2100 1491 c0 -5 18 -27 40 -50 39 -40 42 -41 102 -41 35 1 86 7 113
15 54 15 52 18 -9 15 -78 -4 -176 11 -176 26 0 8 -6 14 -12 13 -27 -3 -38 2
-38 16 0 8 -4 15 -10 15 -5 0 -10 -4 -10 -9z"/>
<path d="M2864 1471 c7 -11 70 -41 87 -41 17 0 9 29 -8 34 -54 15 -85 18 -79
7z"/>
<path d="M3000 1463 c5 -10 14 -30 20 -45 6 -19 14 -26 25 -22 24 10 17 41
-14 63 -36 26 -44 26 -31 4z"/>
<path d="M3175 1470 c-7 -12 2 -30 16 -30 12 0 12 27 0 35 -5 3 -12 1 -16 -5z"/>
<path d="M3230 1470 c0 -5 7 -10 16 -10 8 0 12 5 9 10 -3 6 -10 10 -16 10 -5
0 -9 -4 -9 -10z"/>
<path d="M2841 1426 c11 -19 26 -37 34 -40 9 -3 5 10 -11 34 -32 49 -51 53
-23 6z"/>
<path d="M3105 1445 c14 -39 13 -76 -2 -70 -8 3 -24 -1 -35 -9 -11 -8 -26 -12
-33 -10 -7 3 -16 1 -20 -5 -12 -21 71 -12 99 10 31 25 33 49 5 80 -18 21 -20
21 -14 4z"/>
<path d="M2470 1420 c0 -5 5 -10 11 -10 5 0 7 5 4 10 -3 6 -8 10 -11 10 -2 0
-4 -4 -4 -10z"/>
<path d="M2800 1426 c0 -2 9 -23 20 -47 22 -50 27 -36 6 16 -13 30 -26 46 -26
31z"/>
<path d="M2956 1411 c-3 -5 0 -13 7 -19 15 -13 42 1 33 17 -9 13 -33 15 -40 2z"/>
<path d="M3180 1404 c0 -8 12 -12 30 -12 34 1 32 13 -5 20 -16 4 -25 1 -25 -8z"/>
<path d="M2345 1390 c3 -5 8 -10 11 -10 2 0 4 5 4 10 0 6 -5 10 -11 10 -5 0
-7 -4 -4 -10z"/>
<path d="M3300 1380 c0 -5 5 -10 10 -10 6 0 10 5 10 10 0 6 -4 10 -10 10 -5 0
-10 -4 -10 -10z"/>
<path d="M2368 1367 c-25 -9 -11 -29 21 -31 12 0 20 -5 19 -11 -1 -5 -8 -9
-14 -7 -7 1 -15 -2 -19 -7 -3 -6 -12 -8 -20 -4 -8 3 -15 1 -15 -5 0 -24 75
-30 104 -9 17 12 17 15 2 29 -22 23 -20 26 17 30 17 2 30 7 27 12 -6 11 -95
13 -122 3z"/>
<path d="M2590 1356 c0 -9 5 -16 10 -16 6 0 10 4 10 9 0 6 -4 13 -10 16 -5 3
-10 -1 -10 -9z"/>
<path d="M2970 1366 c0 -2 7 -6 15 -10 8 -3 15 -1 15 4 0 6 -7 10 -15 10 -8 0
-15 -2 -15 -4z"/>
<path d="M2860 1330 c0 -5 5 -10 10 -10 6 0 10 5 10 10 0 6 -4 10 -10 10 -5 0
-10 -4 -10 -10z"/>
<path d="M2574 1298 c-17 -33 -11 -51 9 -25 6 9 22 18 34 20 34 5 35 12 2 24
-27 11 -30 9 -45 -19z"/>
<path d="M3325 1278 c-11 -6 -29 -20 -39 -30 -23 -21 -30 -22 -56 -6 -15 10
-22 10 -32 0 -9 -9 -8 -12 5 -12 14 0 16 -6 11 -25 -7 -27 10 -35 20 -9 5 14
7 14 22 0 26 -26 44 -20 39 14 -4 32 11 40 34 18 12 -11 13 -10 7 6 -4 12 0
26 10 37 19 21 9 24 -21 7z"/>
<path d="M2610 1230 c0 -22 86 -117 97 -107 3 4 -6 16 -20 28 -31 24 -35 45
-9 53 14 4 14 5 -3 4 -37 -1 -43 2 -41 18 0 9 -5 19 -11 21 -8 3 -13 -4 -13
-17z"/>
<path d="M3300 1210 c0 -5 5 -10 10 -10 6 0 10 5 10 10 0 6 -4 10 -10 10 -5 0
-10 -4 -10 -10z"/>
<path d="M2975 1189 c-10 -31 12 -49 24 -18 5 13 7 27 4 32 -8 14 -22 7 -28
-14z"/>
<path d="M2700 1180 c0 -5 5 -10 11 -10 5 0 7 5 4 10 -3 6 -8 10 -11 10 -2 0
-4 -4 -4 -10z"/>
<path d="M3030 1155 c0 -9 9 -15 24 -15 13 0 29 7 36 15 11 13 7 15 -24 15
-25 0 -36 -4 -36 -15z"/>
<path d="M3226 1147 c3 -10 9 -15 12 -12 3 3 0 11 -7 18 -10 9 -11 8 -5 -6z"/>
<path d="M3286 1131 c-3 -5 1 -12 10 -15 27 -11 37 -7 24 9 -14 17 -26 19 -34
6z"/>
<path d="M3050 1120 c13 -8 12 -11 -4 -23 -19 -14 -17 -15 22 -22 29 -5 50
-16 69 -38 25 -30 26 -31 20 -7 -4 14 -7 30 -7 36 0 14 -77 64 -98 64 -15 0
-15 -2 -2 -10z"/>
<path d="M3176 1085 c4 -8 11 -15 16 -15 6 0 5 6 -2 15 -7 8 -14 15 -16 15 -2
0 -1 -7 2 -15z"/>
<path d="M3320 1050 c6 -10 16 -23 24 -27 7 -4 18 -17 24 -28 11 -20 11 -20
12 1 0 11 -13 32 -28 47 -33 32 -47 35 -32 7z"/>
<path d="M3040 1040 c0 -6 8 -14 18 -17 9 -4 20 -10 23 -15 3 -5 13 -6 23 -2
16 6 15 8 -3 25 -22 20 -61 26 -61 9z"/>
<path d="M3391 1034 c0 -11 3 -14 6 -6 3 7 2 16 -1 19 -3 4 -6 -2 -5 -13z"/>
<path d="M2796 1001 c-8 -13 11 -51 24 -51 13 0 13 3 -4 35 -8 15 -17 22 -20
16z"/>
<path d="M2850 1000 c0 -13 18 -22 24 -11 3 5 -1 11 -9 15 -8 3 -15 1 -15 -4z"/>
<path d="M2990 1000 c0 -5 7 -10 15 -10 8 0 15 5 15 10 0 6 -7 10 -15 10 -8 0
-15 -4 -15 -10z"/>
<path d="M3050 986 c0 -8 7 -17 16 -20 24 -9 54 -7 54 4 0 5 -6 7 -13 4 -8 -3
-20 2 -27 11 -16 19 -30 19 -30 1z"/>
<path d="M3246 987 c3 -10 9 -15 12 -12 3 3 0 11 -7 18 -10 9 -11 8 -5 -6z"/>
<path d="M3136 981 c-3 -5 1 -12 10 -15 27 -11 37 -7 24 9 -14 17 -26 19 -34
6z"/>
<path d="M2875 970 c-4 -6 -14 -9 -23 -5 -9 3 -13 3 -9 -2 13 -12 68 -12 64 0
-5 16 -24 20 -32 7z"/>
<path d="M2976 950 c-17 -6 -18 -7 -3 -13 9 -3 19 -2 23 4 9 15 2 18 -20 9z"/>
<path d="M3135 920 c28 -12 63 -12 70 0 4 6 -12 10 -42 9 -36 0 -43 -3 -28 -9z"/>
<path d="M2990 910 c0 -5 7 -10 16 -10 8 0 12 5 9 10 -3 6 -10 10 -16 10 -5 0
-9 -4 -9 -10z"/>
<path d="M3050 910 c0 -5 5 -10 11 -10 5 0 7 5 4 10 -3 6 -8 10 -11 10 -2 0
-4 -4 -4 -10z"/>
<path d="M3365 910 c-3 -5 -1 -10 4 -10 6 0 11 5 11 10 0 6 -2 10 -4 10 -3 0
-8 -4 -11 -10z"/>
<path d="M2572 898 c3 -7 24 -14 49 -16 41 -2 43 -1 25 13 -24 19 -79 20 -74
3z"/>
<path d="M2745 900 c3 -5 8 -10 11 -10 2 0 4 5 4 10 0 6 -5 10 -11 10 -5 0 -7
-4 -4 -10z"/>
<path d="M3110 896 c0 -8 77 -56 90 -56 20 0 10 20 -17 33 -36 18 -73 30 -73
23z"/>
<path d="M2360 881 c0 -5 5 -13 10 -16 6 -3 10 -2 10 4 0 5 -4 13 -10 16 -5 3
-10 2 -10 -4z"/>
<path d="M2720 849 c0 -5 5 -7 10 -4 6 3 10 8 10 11 0 2 -4 4 -10 4 -5 0 -10
-5 -10 -11z"/>
<path d="M2980 842 c0 -7 63 -42 75 -42 3 0 5 5 5 11 0 5 -16 17 -35 25 -40
16 -45 17 -45 6z"/>
<path d="M2630 825 c0 -12 42 -46 48 -39 4 3 1 9 -5 11 -7 3 -13 11 -13 19 0
8 -7 14 -15 14 -8 0 -15 -2 -15 -5z"/>
<path d="M2555 810 l-50 -7 45 -1 c25 -1 52 3 60 8 8 5 11 9 5 8 -5 -1 -32 -4
-60 -8z"/>
<path d="M2757 813 c-4 -6 0 -19 8 -29 11 -15 14 -16 15 -4 0 21 -16 44 -23
33z"/>
<path d="M2820 809 c-15 -4 -18 -7 -8 -8 11 -1 20 -12 24 -28 8 -36 31 -73 45
-73 8 0 8 4 1 13 -5 6 -16 32 -24 58 -12 41 -15 44 -38 38z"/>
<path d="M3110 802 c0 -19 12 -42 22 -42 14 0 5 43 -9 48 -7 2 -13 -1 -13 -6z"/>
<path d="M2920 791 c0 -6 5 -13 10 -16 6 -3 10 1 10 9 0 9 -4 16 -10 16 -5 0
-10 -4 -10 -9z"/>
<path d="M2970 781 c0 -6 4 -13 10 -16 6 -3 7 1 4 9 -7 18 -14 21 -14 7z"/>
<path d="M3315 780 c3 -5 11 -10 16 -10 6 0 7 5 4 10 -3 6 -11 10 -16 10 -6 0
-7 -4 -4 -10z"/>
<path d="M2445 768 c-68 -13 -83 -27 -49 -45 28 -14 49 -8 24 7 -12 8 -12 10
2 15 10 4 21 4 26 1 11 -7 72 15 72 26 0 9 -8 9 -75 -4z"/>
<path d="M2550 740 c0 -12 45 -24 60 -15 5 3 8 11 5 16 -8 12 -65 12 -65 -1z"/>
<path d="M2650 740 c-8 -5 -11 -12 -8 -16 10 -9 38 3 38 16 0 12 -10 13 -30 0z"/>
<path d="M2910 724 c0 -8 5 -12 10 -9 6 4 8 11 5 16 -9 14 -15 11 -15 -7z"/>
<path d="M2473 712 c-9 -15 -7 -21 8 -30 10 -7 19 -21 19 -32 0 -11 6 -20 14
-20 10 0 12 -7 9 -21 -5 -19 -3 -21 26 -17 24 3 31 1 27 -9 -6 -15 20 -18 29
-3 3 6 1 10 -6 10 -7 0 0 14 17 31 l29 32 -48 -7 c-43 -5 -51 -3 -73 21 -13
14 -23 33 -22 41 4 22 -15 25 -29 4z"/>
<path d="M2765 720 c-3 -5 -5 -10 -3 -11 19 -4 51 -9 47 -6 -2 1 -11 8 -21 15
-11 9 -18 10 -23 2z"/>
<path d="M2550 695 c-13 -16 3 -24 40 -19 14 1 29 3 35 3 5 1 4 6 -3 13 -16
16 -59 19 -72 3z"/>
<path d="M3070 690 c0 -5 5 -10 11 -10 5 0 7 5 4 10 -3 6 -8 10 -11 10 -2 0
-4 -4 -4 -10z"/>
<path d="M2350 661 c0 -34 20 -54 46 -44 16 6 17 5 6 -9 -16 -21 2 -34 20 -15
10 12 15 10 31 -9 13 -17 28 -24 50 -23 30 0 30 1 9 9 -19 8 -21 13 -13 29 8
14 7 20 -4 25 -8 3 -15 12 -15 21 0 8 -7 15 -15 15 -9 0 -12 -6 -9 -15 7 -16
-9 -19 -41 -5 -19 7 -19 8 -2 15 17 7 17 8 0 21 -10 7 -28 14 -40 14 -19 0
-23 -6 -23 -29z"/>
<path d="M2767 683 c-21 -5 -18 -27 4 -31 9 -2 15 5 15 18 0 11 0 19 -1 19 0
-1 -8 -3 -18 -6z"/>
<path d="M2892 659 c6 -16 13 -28 15 -25 8 8 -6 56 -17 56 -5 0 -5 -13 2 -31z"/>
<path d="M2930 668 c0 -18 18 -34 28 -24 3 4 -2 14 -11 23 -16 16 -17 16 -17
1z"/>
<path d="M3020 660 c0 -5 5 -10 10 -10 6 0 10 5 10 10 0 6 -4 10 -10 10 -5 0
-10 -4 -10 -10z"/>
<path d="M3076 622 c-3 -6 -1 -14 5 -17 15 -10 25 3 12 16 -7 7 -13 7 -17 1z"/>
<path d="M3127 624 c-15 -15 -6 -24 23 -24 17 0 37 -9 50 -22 28 -30 33 -19 7
14 -22 27 -67 45 -80 32z"/>
<path d="M2700 600 c-10 -6 -11 -10 -2 -10 6 0 12 -7 12 -15 0 -8 7 -15 15
-15 14 0 17 -5 19 -40 1 -9 14 -15 39 -16 l39 -1 -41 37 c-23 21 -41 45 -41
54 0 18 -17 21 -40 6z"/>
<path d="M2780 595 c0 -10 7 -15 18 -13 21 4 19 22 -2 26 -10 2 -16 -3 -16
-13z"/>
<path d="M2892 601 c6 -22 21 -23 43 -6 20 16 20 16 -1 6 -15 -7 -25 -7 -34 2
-10 9 -12 9 -8 -2z"/>
<path d="M3015 590 c3 -5 13 -10 21 -10 8 0 12 5 9 10 -3 6 -13 10 -21 10 -8
0 -12 -4 -9 -10z"/>
<path d="M2970 580 c0 -5 5 -10 11 -10 5 0 7 5 4 10 -3 6 -8 10 -11 10 -2 0
-4 -4 -4 -10z"/>
<path d="M2609 561 l-24 -20 23 6 c23 5 38 20 29 29 -2 2 -15 -4 -28 -15z"/>
<path d="M2845 570 c3 -5 8 -10 11 -10 2 0 4 5 4 10 0 6 -5 10 -11 10 -5 0 -7
-4 -4 -10z"/>
<path d="M2429 545 c18 -8 41 -15 50 -15 27 1 -31 29 -59 29 -23 0 -22 -1 9
-14z"/>
<path d="M2877 539 c-4 -13 1 -24 14 -32 10 -6 19 -20 19 -29 0 -10 7 -18 16
-18 12 0 14 3 6 13 -6 7 -9 22 -7 33 3 12 -3 25 -19 36 -23 17 -24 16 -29 -3z"/>
<path d="M2945 550 c3 -5 8 -10 11 -10 2 0 4 5 4 10 0 6 -5 10 -11 10 -5 0 -7
-4 -4 -10z"/>
<path d="M2333 538 c2 -7 8 -13 13 -14 25 -2 64 -25 59 -34 -9 -14 -24 -12
-41 5 -9 8 -20 15 -25 15 -12 0 -12 -17 1 -25 6 -4 8 -11 5 -16 -4 -5 2 -10
12 -10 47 -3 48 -4 45 -34 -2 -16 -8 -31 -13 -33 -13 -5 -11 -30 4 -35 10 -4
10 -6 0 -6 -26 -2 -12 -21 15 -21 15 0 34 -6 42 -13 8 -7 7 -1 -4 16 -15 24
-15 28 -2 33 9 3 23 -1 31 -10 9 -9 21 -16 26 -16 12 0 12 17 -1 25 -6 4 -8
10 -5 15 7 12 -14 24 -45 24 -19 1 -25 7 -26 24 -1 18 3 21 18 16 16 -5 19 -2
16 13 -2 10 -11 17 -19 15 -9 -1 -16 4 -16 11 0 11 14 13 60 8 4 -1 7 -8 7
-16 0 -8 5 -15 10 -15 6 0 10 7 10 15 0 8 5 15 10 15 6 0 10 11 10 25 0 16 -6
25 -16 25 -10 0 -14 -6 -10 -15 8 -23 -61 -19 -107 5 -42 23 -71 26 -64 8z"/>
<path d="M2825 540 c3 -5 8 -10 11 -10 2 0 4 5 4 10 0 6 -5 10 -11 10 -5 0 -7
-4 -4 -10z"/>
<path d="M3100 540 c0 -5 -7 -10 -15 -10 -8 0 -15 -7 -15 -16 0 -14 3 -14 15
-4 12 10 15 10 15 -1 0 -10 4 -9 16 3 9 9 13 21 10 27 -9 14 -26 14 -26 1z"/>
<path d="M2970 522 c0 -8 6 -12 15 -9 8 4 17 2 20 -3 10 -17 27 -11 23 8 -4
21 -58 25 -58 4z"/>
<path d="M2586 507 c-49 -28 -51 -41 -6 -45 19 -2 45 -12 56 -23 23 -21 39
-13 28 14 -3 8 0 18 6 22 8 5 4 15 -11 31 -27 29 -25 29 -73 1z"/>
<path d="M3160 510 c0 -13 20 -13 40 0 12 8 9 10 -12 10 -16 0 -28 -4 -28 -10z"/>
<path d="M2700 475 c0 -9 9 -15 21 -15 18 0 19 2 5 15 -8 8 -17 15 -20 15 -3
0 -6 -7 -6 -15z"/>
<path d="M2990 460 c0 -5 5 -10 11 -10 5 0 7 5 4 10 -3 6 -8 10 -11 10 -2 0
-4 -4 -4 -10z"/>
<path d="M2760 445 c-9 -10 -9 -15 -1 -15 6 0 11 4 11 10 0 5 7 7 15 4 8 -4
15 -1 15 5 0 16 -25 13 -40 -4z"/>
<path d="M3035 450 c3 -5 11 -10 16 -10 6 0 7 5 4 10 -3 6 -11 10 -16 10 -6 0
-7 -4 -4 -10z"/>
<path d="M3191 456 c10 -9 79 -14 79 -5 0 5 -19 9 -42 9 -23 0 -39 -2 -37 -4z"/>
<path d="M2690 440 c0 -5 5 -10 10 -10 6 0 10 5 10 10 0 6 -4 10 -10 10 -5 0
-10 -4 -10 -10z"/>
<path d="M2810 440 c0 -5 5 -10 11 -10 5 0 7 5 4 10 -3 6 -8 10 -11 10 -2 0
-4 -4 -4 -10z"/>
<path d="M2895 440 c-3 -5 1 -10 10 -10 9 0 13 5 10 10 -3 6 -8 10 -10 10 -2
0 -7 -4 -10 -10z"/>
<path d="M2930 440 c0 -5 7 -10 16 -10 8 0 12 5 9 10 -3 6 -10 10 -16 10 -5 0
-9 -4 -9 -10z"/>
<path d="M3430 431 c0 -5 5 -13 10 -16 6 -3 10 -2 10 4 0 5 -4 13 -10 16 -5 3
-10 2 -10 -4z"/>
<path d="M2517 408 c-6 -22 -6 -22 27 -4 l27 14 -25 4 c-18 4 -26 0 -29 -14z"/>
<path d="M2691 410 c-8 -4 -20 -6 -28 -3 -7 3 -13 1 -13 -5 0 -10 60 -26 68
-18 2 3 0 11 -5 20 -5 10 -13 12 -22 6z"/>
<path d="M2750 404 c0 -11 16 -37 35 -58 19 -21 37 -46 40 -56 3 -10 13 -21
21 -24 12 -5 12 0 -3 25 -10 17 -26 39 -35 49 -10 10 -27 33 -38 52 -16 27
-20 29 -20 12z"/>
<path d="M3200 410 l-25 -7 27 -11 c28 -11 58 -7 58 8 0 12 -32 17 -60 10z"/>
<path d="M2790 400 c0 -5 5 -10 10 -10 6 0 10 5 10 10 0 6 -4 10 -10 10 -5 0
-10 -4 -10 -10z"/>
<path d="M2530 369 c0 -5 5 -7 10 -4 6 3 10 8 10 11 0 2 -4 4 -10 4 -5 0 -10
-5 -10 -11z"/>
<path d="M2955 349 c-8 -25 7 -44 29 -36 12 5 13 10 3 31 -15 31 -24 33 -32 5z"/>
<path d="M3130 360 c0 -5 4 -10 9 -10 6 0 13 5 16 10 3 6 -1 10 -9 10 -9 0
-16 -4 -16 -10z"/>
<path d="M3300 360 c0 -5 9 -10 21 -10 11 0 17 5 14 10 -3 6 -13 10 -21 10 -8
0 -14 -4 -14 -10z"/>
<path d="M2840 350 c0 -5 5 -10 10 -10 6 0 10 5 10 10 0 6 -4 10 -10 10 -5 0
-10 -4 -10 -10z"/>
<path d="M3205 350 c3 -5 15 -10 26 -10 11 0 17 5 14 10 -3 6 -15 10 -26 10
-11 0 -17 -4 -14 -10z"/>
<path d="M2545 308 c-7 -18 -11 -36 -8 -40 2 -5 -3 -16 -13 -25 -16 -16 -16
-16 -10 5 5 16 4 22 -6 20 -9 -2 -12 6 -10 24 2 20 -1 26 -11 22 -16 -6 -14
-56 5 -91 8 -17 21 -23 47 -23 35 -1 34 -2 -26 -27 -36 -14 -63 -31 -63 -39 0
-11 4 -12 19 -4 25 13 68 13 76 0 4 -6 16 -5 33 3 15 8 35 12 45 9 13 -3 17 1
15 15 -2 12 2 17 15 15 9 -2 17 1 17 6 0 6 -15 12 -32 15 -92 16 -99 19 -87
33 6 8 18 14 26 14 12 0 11 3 -2 17 -12 11 -15 25 -10 50 8 42 -2 43 -20 1z
m75 -139 c0 -5 -7 -9 -15 -9 -15 0 -20 12 -9 23 8 8 24 -1 24 -14z"/>
<path d="M3030 331 c0 -6 5 -13 10 -16 6 -3 10 1 10 9 0 9 -4 16 -10 16 -5 0
-10 -4 -10 -9z"/>
<path d="M2652 320 c-28 -12 -38 -36 -22 -55 15 -18 51 -20 67 -4 8 8 17 8 31
0 11 -6 35 -11 54 -11 32 0 32 0 13 20 -31 30 -110 32 -119 3 -3 -10 -4 -1 -1
20 2 20 3 37 2 36 -1 0 -12 -4 -25 -9z"/>
<path d="M3125 310 c-3 -5 -1 -10 4 -10 6 0 11 5 11 10 0 6 -2 10 -4 10 -3 0
-8 -4 -11 -10z"/>
<path d="M2860 294 c0 -3 7 -12 15 -20 16 -17 18 -14 9 10 -6 15 -24 23 -24
10z"/>
<path d="M2969 295 c-4 -5 -5 -21 -4 -35 2 -14 4 -28 4 -32 1 -11 31 -10 31 0
0 4 -4 12 -9 17 -5 6 -11 21 -13 35 -2 14 -6 21 -9 15z"/>
<path d="M3140 280 c0 -5 4 -10 9 -10 6 0 13 5 16 10 3 6 -1 10 -9 10 -9 0
-16 -4 -16 -10z"/>
<path d="M2590 271 c0 -6 4 -13 10 -16 6 -3 7 1 4 9 -7 18 -14 21 -14 7z"/>
<path d="M3280 250 c0 -5 5 -10 10 -10 6 0 10 5 10 10 0 6 -4 10 -10 10 -5 0
-10 -4 -10 -10z"/>
<path d="M2135 220 c3 -5 12 -10 20 -10 7 0 15 -4 17 -10 2 -6 8 -6 18 0 13 8
12 10 -2 10 -10 0 -18 5 -18 10 0 6 -9 10 -21 10 -11 0 -17 -4 -14 -10z"/>
<path d="M2850 209 c0 -5 5 -7 10 -4 6 3 10 8 10 11 0 2 -4 4 -10 4 -5 0 -10
-5 -10 -11z"/>
<path d="M3130 215 c0 -9 71 -37 78 -30 3 3 1 9 -4 14 -11 11 -74 25 -74 16z"/>
<path d="M3250 211 c0 -6 5 -13 10 -16 6 -3 10 -15 10 -26 0 -23 28 -25 37 -2
4 10 -2 23 -16 35 -25 20 -41 23 -41 9z"/>
<path d="M2765 190 c-3 -5 -1 -10 4 -10 6 0 11 -7 11 -15 0 -17 16 -20 25 -5
3 6 1 10 -4 10 -6 0 -11 7 -11 15 0 17 -16 20 -25 5z"/>
<path d="M3465 190 c-4 -6 -11 -7 -17 -4 -7 4 -8 2 -4 -4 10 -17 46 -15 46 3
0 17 -16 20 -25 5z"/>
<path d="M2135 180 c-4 -6 -13 -9 -21 -6 -8 3 -14 1 -14 -4 0 -6 32 -10 70
-10 40 0 70 -4 70 -10 0 -5 -10 -10 -22 -10 -22 -1 -23 -1 -4 -15 19 -14 19
-15 -7 -15 -16 0 -26 5 -24 13 1 8 -8 11 -25 9 -16 -1 -37 2 -47 8 -21 11 -51
4 -51 -12 0 -6 8 -7 17 -4 15 6 122 -26 148 -44 12 -9 75 16 75 30 0 24 -48
56 -91 59 -24 1 -49 7 -56 12 -7 7 -14 6 -18 -1z"/>
<path d="M2450 180 c0 -5 5 -10 10 -10 6 0 10 5 10 10 0 6 -4 10 -10 10 -5 0
-10 -4 -10 -10z"/>
<path d="M2690 180 c0 -5 7 -10 16 -10 8 0 12 5 9 10 -3 6 -10 10 -16 10 -5 0
-9 -4 -9 -10z"/>
<path d="M2880 151 c0 -11 4 -21 9 -21 18 0 21 18 6 30 -13 10 -15 9 -15 -9z"/>
<path d="M2925 160 c-3 -5 -1 -10 4 -10 6 0 11 5 11 10 0 6 -2 10 -4 10 -3 0
-8 -4 -11 -10z"/>
<path d="M3130 164 c0 -13 18 -39 24 -34 2 3 -2 14 -10 24 -8 11 -14 16 -14
10z"/>
<path d="M3485 139 c-10 -15 4 -61 16 -53 6 3 8 12 5 19 -2 7 2 16 10 19 18 7
9 26 -11 26 -8 0 -17 -5 -20 -11z"/>
<path d="M2680 128 l-25 -10 23 -11 c16 -7 26 -7 34 1 19 19 -3 32 -32 20z"/>
<path d="M3170 115 c0 -15 18 -40 24 -34 3 3 -1 14 -9 25 -8 10 -14 15 -15 9z"/>
<path d="M2458 83 c-2 -10 -1 -29 3 -43 7 -24 7 -24 8 -2 1 13 7 22 16 22 13
0 14 4 5 20 -13 25 -26 26 -32 3z"/>
<path d="M3440 90 c0 -5 5 -10 10 -10 6 0 10 5 10 10 0 6 -4 10 -10 10 -5 0
-10 -4 -10 -10z"/>
<path d="M2090 87 c0 -2 7 -18 15 -33 13 -25 15 -26 15 -8 0 12 -7 27 -15 34
-8 7 -15 10 -15 7z"/>
<path d="M2360 81 c0 -5 6 -14 14 -20 11 -9 15 -8 20 5 9 23 8 24 -14 24 -11
0 -20 -4 -20 -9z"/>
<path d="M3235 80 c3 -5 10 -10 16 -10 5 0 9 5 9 10 0 6 -7 10 -16 10 -8 0
-12 -4 -9 -10z"/>
<path d="M2660 72 c0 -12 24 -22 52 -22 11 0 18 5 16 13 -5 14 -68 23 -68 9z"/>
<path d="M2874 68 c-3 -5 -1 -15 5 -22 13 -16 61 -9 61 9 0 15 -58 26 -66 13z"/>
<path d="M2010 52 c0 -4 9 -13 19 -19 16 -10 20 -9 24 8 4 15 0 19 -19 19 -13
0 -24 -3 -24 -8z"/>
<path d="M3196 44 c-4 -9 -4 -19 -1 -22 2 -3 7 3 11 12 4 9 4 19 1 22 -2 3 -7
-3 -11 -12z"/>
<path d="M3521 44 c0 -11 3 -14 6 -6 3 7 2 16 -1 19 -3 4 -6 -2 -5 -13z"/>
<path d="M3470 41 c0 -5 9 -11 21 -14 16 -4 18 -3 8 9 -13 16 -29 19 -29 5z"/>
</g>
</svg>
