
<svg version="1.0" xmlns="http://www.w3.org/2000/svg"
 width="721.000000pt" height="355.000000pt" viewBox="0 0 721.000000 355.000000"
 preserveAspectRatio="xMidYMid meet">

<g transform="translate(0.000000,355.000000) scale(0.100000,-0.100000)"
fill="#000000" stroke="none">
<path d="M0 3373 l0 -168 78 81 c86 90 144 133 235 173 115 52 189 66 342 66
135 0 143 -1 218 -33 43 -18 102 -48 130 -66 70 -45 173 -148 195 -194 9 -20
29 -43 44 -51 27 -16 27 -15 125 80 54 52 118 107 143 121 25 14 68 42 97 61
70 47 161 67 306 67 114 0 158 -8 275 -52 92 -34 67 -41 -127 -33 -200 7 -239
3 -276 -31 -14 -12 -25 -21 -25 -18 0 10 -88 -56 -93 -71 -4 -9 -19 -15 -36
-15 -16 0 -32 -4 -35 -9 -3 -5 -22 -12 -42 -16 -20 -3 -48 -13 -61 -22 -24
-16 -83 -97 -83 -114 0 -6 -4 -8 -9 -5 -4 3 -16 -10 -26 -28 -26 -48 -16 -299
20 -491 28 -147 31 -198 15 -241 -12 -29 -3 -33 -96 38 -52 40 -86 47 -110 23
-29 -28 -199 -142 -269 -179 -76 -41 -170 -69 -287 -85 -127 -18 -264 12 -413
90 -90 47 -155 89 -203 133 l-32 30 0 -1207 0 -1207 940 0 940 0 -7 106 c-6
106 -6 106 15 100 14 -5 22 -3 22 5 0 9 4 8 15 -1 11 -10 15 -36 15 -111 l0
-99 121 0 121 0 -6 28 c-9 38 -9 34 -2 167 4 76 11 122 19 127 8 5 13 -3 16
-25 l3 -32 13 35 c10 32 16 35 53 38 l42 3 0 -36 c0 -19 -10 -64 -21 -98 -12
-34 -29 -95 -39 -134 l-17 -73 219 0 219 0 -7 164 c-4 111 -3 165 4 170 15 9
58 -10 65 -28 6 -15 -7 -209 -18 -273 l-6 -33 551 0 c517 0 550 1 550 18 0 14
-2 14 -9 3 -6 -9 -10 38 -10 122 l-2 137 57 25 c31 14 68 25 82 25 14 0 56 14
93 31 74 34 110 34 129 -1 8 -16 7 -27 -5 -48 -21 -35 -95 -91 -143 -108 -22
-8 -29 -13 -17 -14 14 0 16 -3 7 -8 -8 -5 -10 -16 -5 -28 10 -27 29 -44 39
-36 5 4 1 -2 -8 -13 -15 -18 -15 -27 -6 -65 9 -35 13 -40 19 -24 7 16 8 17 8
2 1 -17 44 -18 765 -18 l764 0 -40 113 c-57 160 -69 200 -64 214 8 21 109 17
128 -4 10 -12 20 -58 27 -133 7 -63 14 -132 18 -152 l6 -38 778 0 779 0 0
1172 0 1171 -22 -20 c-45 -40 -178 -124 -250 -157 -157 -73 -383 -86 -543 -32
-101 34 -183 76 -262 132 -84 60 -99 58 -108 -8 -11 -86 -44 -200 -73 -248
-15 -25 -33 -54 -39 -65 -7 -11 -37 -60 -67 -110 -67 -112 -97 -141 -161 -155
-27 -6 -55 -16 -62 -22 -7 -5 -21 -7 -30 -4 -10 4 -14 4 -11 1 4 -4 3 -18 -3
-32 -6 -16 -6 -22 1 -18 6 3 10 1 10 -4 0 -13 -20 -14 -35 -3 -6 4 -10 14 -10
22 0 8 -14 29 -32 47 -43 42 -120 148 -129 176 -3 12 -19 36 -34 52 -29 31
-45 87 -56 188 -3 31 -9 57 -14 57 -5 0 -7 6 -5 13 3 6 -17 39 -43 72 -63 78
-86 139 -77 204 4 31 3 51 -4 56 -14 8 -14 48 0 95 10 33 17 40 54 49 29 7 53
7 81 0 l39 -11 -46 -23 c-54 -28 -60 -35 -83 -103 -21 -60 -17 -68 34 -76 47
-8 70 6 53 34 -20 31 -16 35 27 34 22 -1 43 2 46 7 3 5 29 9 59 9 l53 0 -5
-57 c-2 -32 -4 -96 -4 -143 1 -47 -7 -118 -16 -160 -10 -41 -16 -87 -15 -101
2 -20 -2 -28 -18 -32 -27 -7 -25 -16 11 -65 30 -41 45 -48 97 -43 12 1 36 -7
51 -19 16 -11 33 -20 38 -20 10 0 50 39 42 41 -2 0 -24 2 -48 5 -56 6 -64 11
-43 32 16 16 52 29 170 63 49 14 97 45 52 34 -21 -5 -67 -13 -150 -26 -8 -1
-23 -1 -33 -1 -17 2 -17 5 5 33 13 17 40 49 61 70 20 22 37 43 37 46 0 4 -9
-3 -19 -14 -27 -28 -65 -19 -90 21 -13 21 -23 65 -31 136 -6 58 -15 141 -20
185 -6 65 -12 82 -30 95 -12 8 -38 29 -59 47 -45 38 -93 57 -189 73 -59 10
-75 16 -81 33 -13 33 -1 65 28 76 l26 9 -27 1 c-30 1 -37 15 -14 28 8 4 14 17
13 28 -2 16 4 20 26 20 15 -1 27 3 27 7 0 4 -11 8 -25 8 -20 0 -25 5 -25 26 0
16 -11 35 -30 51 -38 32 -38 43 3 80 32 29 61 36 180 46 9 1 17 5 17 10 0 4 5
5 10 2 6 -3 10 2 10 12 0 14 2 15 9 4 7 -11 9 -11 14 0 5 12 6 12 6 0 1 -11 4
-11 16 -1 13 11 14 10 9 -4 -5 -12 -2 -15 10 -10 9 4 16 3 15 -2 -4 -24 2 -36
16 -30 8 3 15 1 15 -4 0 -4 16 -14 36 -20 38 -13 49 -11 167 26 27 9 69 31 94
50 24 19 51 34 58 34 24 0 76 -52 101 -102 22 -43 25 -64 28 -171 2 -101 7
-135 29 -197 14 -41 29 -109 33 -150 7 -67 8 -71 16 -42 5 17 13 32 19 32 6 0
8 4 5 9 -3 5 6 21 20 37 24 25 25 29 10 40 -10 7 -14 18 -10 28 3 9 1 23 -5
30 -9 11 -9 16 0 22 7 4 19 -1 29 -14 16 -20 17 -17 16 61 0 48 7 114 18 157
10 41 19 109 20 150 1 69 -2 79 -31 123 -56 82 -55 85 39 144 116 73 184 102
291 124 239 49 457 0 659 -148 l58 -43 0 135 0 135 -3605 0 -3605 0 0 -167z
m3375 147 c3 -5 1 -10 -4 -10 -6 0 -11 5 -11 10 0 6 2 10 4 10 3 0 8 -4 11
-10z m-205 -31 c0 -5 8 -9 18 -9 12 0 11 -4 -8 -14 -14 -7 -29 -10 -34 -8 -5
3 -1 9 10 13 17 7 17 8 -4 8 -24 1 -55 24 -46 34 8 8 64 -13 64 -24z m136 -6
c-8 -8 -66 18 -61 27 3 5 19 2 36 -7 17 -8 28 -17 25 -20z m1875 16 c-18 -11
-35 -18 -38 -15 -5 5 46 35 62 36 6 0 -5 -9 -24 -21z m513 13 c2 -4 1 -14 -3
-21 -9 -14 -61 -5 -61 11 0 5 10 6 21 3 15 -5 19 -4 15 4 -4 6 -1 11 8 11 8 0
17 -4 20 -8z m-77 -26 c-2 -6 -26 -14 -53 -17 -27 -3 -69 -16 -92 -28 -23 -12
-55 -26 -70 -32 -24 -8 -23 -6 12 26 21 19 34 35 29 35 -13 0 -103 -68 -125
-95 -10 -11 -17 -15 -18 -7 0 12 23 35 65 66 16 11 17 17 7 29 -11 12 -8 16
14 21 14 4 29 5 32 1 3 -3 -2 -5 -11 -5 -9 0 -19 -5 -23 -11 -4 -8 1 -9 17 -3
33 10 158 31 192 31 16 0 26 -5 24 -11z m-2357 -16 c-8 -5 -19 -10 -25 -10 -5
0 -3 5 5 10 8 5 20 10 25 10 6 0 3 -5 -5 -10z m-230 -10 c-8 -5 -22 -10 -30
-10 -13 0 -13 1 0 10 8 5 22 10 30 10 13 0 13 -1 0 -10z m790 -4 c0 -3 -4 -8
-10 -11 -5 -3 -10 -1 -10 4 0 6 5 11 10 11 6 0 10 -2 10 -4z m1800 -5 c0 -5
10 -11 22 -13 21 -3 21 -3 -4 -15 -23 -10 -26 -10 -21 2 3 10 -2 15 -15 15
-12 0 -24 5 -27 10 -4 6 5 10 19 10 14 0 26 -4 26 -9z m-2463 -17 c-2 -3 -22
-5 -43 -6 -21 0 -45 -6 -53 -12 -11 -8 -13 -8 -7 2 4 7 2 13 -6 13 -7 1 5 5
27 8 39 6 90 3 82 -5z m101 4 c-3 -7 -18 -14 -34 -15 -26 -1 -26 -1 -4 4 l25
6 -25 8 c-23 6 -22 7 8 8 23 1 32 -3 30 -11z m1922 2 c0 -5 -8 -10 -17 -10
-15 0 -16 2 -3 10 19 12 20 12 20 0z m-1295 -40 c-16 -16 -31 -27 -34 -24 -5
5 48 54 58 54 3 0 -8 -13 -24 -30z m-860 10 c-3 -5 2 -10 12 -10 17 -1 17 -1
0 -11 -14 -8 -27 -7 -50 3 l-32 13 35 6 c19 4 36 7 38 8 2 0 0 -3 -3 -9z
m2165 6 c0 -3 -4 -8 -10 -11 -5 -3 -10 -1 -10 4 0 6 5 11 10 11 6 0 10 -2 10
-4z m93 -9 c3 -8 -1 -14 -9 -14 -8 0 -14 6 -14 14 0 7 4 13 9 13 5 0 11 -6 14
-13z m-2048 -16 c-7 -13 -95 -15 -95 -3 0 5 23 9 51 11 34 1 49 -2 44 -8z
m1365 -21 c-10 -18 -7 -24 13 -21 4 0 7 -4 7 -10 0 -5 5 -7 12 -3 7 5 8 3 3
-5 -4 -8 1 -18 14 -27 12 -9 19 -20 16 -25 -4 -5 -2 -9 4 -9 9 0 50 -35 127
-106 18 -16 35 -43 38 -60 2 -16 5 -29 6 -29 4 0 10 -102 14 -240 2 -82 7
-165 11 -183 8 -35 25 -54 25 -28 0 9 4 16 9 16 11 0 23 -29 16 -40 -3 -4 2
-11 11 -14 10 -4 13 -2 8 7 -5 9 -4 9 5 1 6 -6 14 -26 17 -45 7 -43 -18 -78
-67 -94 l-34 -12 -6 -124 c-3 -68 -11 -134 -17 -146 -7 -12 -8 -24 -4 -27 5
-3 17 -32 27 -65 l18 -60 -41 -86 c-23 -48 -76 -136 -118 -196 -68 -98 -164
-278 -164 -308 0 -17 -15 -13 -35 9 -21 23 -37 27 -29 7 2 -7 -3 -23 -13 -34
-10 -12 -23 -30 -29 -40 -13 -20 -10 -29 -33 83 -5 29 -8 67 -5 85 5 29 0 41
-35 81 l-41 46 27 29 c39 41 142 116 180 132 18 7 38 20 45 29 11 14 9 13 -12
-1 -13 -9 -35 -17 -47 -17 -12 0 -32 -11 -45 -24 -27 -29 -146 -106 -163 -106
-17 0 -46 24 -49 40 -2 8 -8 28 -15 44 -14 36 -8 43 24 28 14 -7 45 -11 68
-11 23 1 32 4 19 6 -13 3 -19 9 -16 15 5 7 2 8 -7 2 -8 -4 -22 -10 -32 -11
-14 -2 -16 2 -12 20 4 14 1 28 -8 35 -10 8 -13 26 -9 57 3 36 -1 53 -19 80
-24 36 -39 44 -39 23 0 -6 -3 -8 -6 -5 -4 4 -15 -3 -25 -14 l-17 -20 -7 20
c-3 12 -15 26 -26 31 -16 9 -19 7 -19 -10 l0 -21 -27 21 c-40 31 -66 79 -58
107 3 14 1 31 -5 38 -6 7 -10 17 -9 21 4 16 -14 69 -42 126 -16 32 -29 72 -29
89 0 18 -7 37 -17 44 -22 17 -26 95 -7 149 30 83 88 107 218 88 91 -13 122 -5
82 22 -15 9 -57 24 -94 33 -37 9 -74 18 -82 21 -8 3 -21 4 -27 3 -7 -1 -13 5
-13 14 0 9 -4 14 -8 11 -13 -8 -36 40 -27 55 5 7 4 10 -2 6 -11 -7 -27 28 -23
48 1 6 2 34 2 63 1 54 5 61 26 40 18 -18 32 8 25 44 -8 41 31 113 71 131 45
21 154 57 171 57 9 0 32 7 53 16 20 10 46 19 56 21 11 2 27 10 36 18 9 8 27
15 39 15 12 0 35 7 51 15 17 9 41 12 58 9 23 -5 32 -1 45 20 20 31 32 35 17 6z
m627 -5 c-7 -14 -16 -25 -20 -25 -8 0 -2 14 16 38 15 19 16 14 4 -13z m508 15
c-3 -5 -11 -10 -16 -10 -6 0 -7 5 -4 10 3 6 11 10 16 10 6 0 7 -4 4 -10z m78
-9 c-7 -26 -52 -70 -49 -47 2 13 44 66 52 66 1 0 0 -9 -3 -19z m-3928 -1 c-4
-6 6 -7 25 -4 24 5 30 3 30 -11 0 -10 5 -15 13 -12 6 3 19 8 28 11 10 5 16 2
16 -9 0 -22 -59 -37 -71 -17 -7 12 -10 12 -17 1 -6 -10 -9 -11 -9 -1 0 6 -6
12 -14 12 -8 0 -13 8 -11 18 5 23 4 22 11 22 3 0 2 -4 -1 -10z m3368 -5 c-3
-9 -8 -14 -10 -11 -3 3 -2 9 2 15 9 16 15 13 8 -4z m-3413 -10 c-7 -8 -17 -15
-23 -15 -6 0 -2 7 9 15 25 19 30 19 14 0z m1250 11 c0 -3 -4 -8 -10 -11 -5 -3
-10 -1 -10 4 0 6 5 11 10 11 6 0 10 -2 10 -4z m43 -3 c-7 -2 -19 -2 -25 0 -7
3 -2 5 12 5 14 0 19 -2 13 -5z m2702 -23 c-7 -11 8 -14 18 -3 10 9 56 10 51 1
-8 -13 11 -9 24 4 7 7 12 10 12 7 0 -3 -11 -16 -26 -30 -22 -21 -24 -21 -19
-4 6 18 5 18 -7 5 -15 -18 -58 -24 -58 -8 0 6 -9 3 -20 -7 -17 -15 -20 -16
-20 -3 0 9 10 23 23 31 26 19 30 20 22 7z m-3780 -20 c-10 -11 -20 -18 -23
-15 -7 6 18 35 31 35 5 0 2 -9 -8 -20z m1181 11 c-3 -5 -15 -7 -26 -4 -28 7
-25 13 6 13 14 0 23 -4 20 -9z m-1475 -30 c-13 -10 -21 -23 -18 -28 3 -5 1
-10 -6 -10 -7 0 -12 10 -12 23 0 12 3 20 7 18 4 -2 9 0 13 6 4 6 11 8 16 5 5
-4 9 -1 9 6 0 7 3 9 7 5 4 -4 -3 -15 -16 -25z m1337 10 c10 -6 6 -11 -17 -19
-18 -7 -29 -7 -26 -2 4 6 14 10 23 11 14 0 13 2 -3 9 -13 6 -15 9 -5 9 8 0 21
-3 28 -8z m-1011 -7 c-3 -3 -12 -4 -19 -1 -8 3 -5 6 6 6 11 1 17 -2 13 -5z
m98 -14 c-4 -7 2 -9 19 -4 28 7 37 -10 10 -20 -33 -13 -52 -7 -47 14 3 11 10
20 15 20 5 0 6 -5 3 -10z m-505 -20 c0 -5 -5 -10 -11 -10 -5 0 -7 5 -4 10 3 6
8 10 11 10 2 0 4 -4 4 -10z m1553 -7 c-13 -2 -23 -9 -23 -14 0 -5 -8 -9 -17
-8 -11 0 -13 3 -5 6 6 2 10 9 6 14 -3 5 10 8 28 8 23 -1 26 -3 11 -6z m-1554
-61 c0 -24 -1 -25 -9 -7 -12 28 -12 47 0 40 6 -3 10 -18 9 -33z m1641 16 c0
-6 -7 -7 -16 -4 -12 5 -15 2 -10 -9 5 -14 0 -15 -30 -11 -32 6 -35 4 -29 -14
8 -26 -3 -25 -26 1 -10 12 -25 19 -32 16 -8 -3 -20 -1 -28 4 -10 6 -5 9 18 9
17 0 34 4 37 9 3 5 24 7 46 4 26 -4 40 -2 40 5 0 6 7 9 15 6 8 -4 15 -11 15
-16z m418 -13 c12 -19 22 -43 21 -52 -1 -15 -2 -15 -7 2 -12 35 -44 75 -55 68
-6 -3 -7 -1 -3 5 11 19 19 14 44 -23z m-1335 18 c-7 -2 -21 -2 -30 0 -10 3 -4
5 12 5 17 0 24 -2 18 -5z m727 -3 c0 -13 -11 -13 -30 0 -12 8 -11 10 8 10 12
0 22 -4 22 -10z m300 -14 c0 -3 -14 -11 -30 -20 -17 -8 -28 -10 -24 -5 3 6 16
14 28 19 26 11 26 11 26 6z m-11 -38 c36 3 43 1 38 -11 -3 -8 -3 -18 0 -21 4
-3 8 -22 10 -42 2 -20 15 -68 28 -108 28 -81 37 -144 22 -153 -6 -4 -4 -11 6
-18 10 -7 15 -21 12 -35 -5 -25 -15 -40 -15 -22 0 7 -4 12 -9 12 -19 0 8 -60
37 -85 16 -13 40 -46 53 -72 13 -26 30 -52 37 -56 7 -5 24 -32 37 -60 l24 -52
2 70 c2 39 2 80 1 93 0 12 3 22 8 22 4 0 10 10 13 23 4 12 13 31 21 42 13 18
14 -2 12 -180 -2 -110 -7 -257 -11 -327 -5 -77 -4 -133 2 -140 5 -7 10 -83 12
-170 l3 -156 -78 -114 c-128 -186 -164 -242 -162 -253 2 -6 43 -10 98 -10 l95
0 0 -95 0 -95 -78 0 -78 0 3 -110 c3 -124 -7 -110 86 -114 l33 -1 -2 -80 -3
-80 -58 0 -58 0 0 -120 0 -120 73 0 c39 0 77 -4 82 -8 6 -4 9 -34 7 -69 l-4
-63 -147 0 -148 0 -6 167 c-4 91 -7 302 -8 467 -1 166 -4 290 -8 276 -6 -19
-13 -25 -34 -23 -24 2 -25 0 -16 -25 6 -14 9 -62 9 -107 -1 -44 1 -88 5 -98 9
-22 9 -23 -42 -31 -37 -5 -45 -3 -68 21 -19 22 -25 38 -25 75 0 27 -4 47 -9
46 -5 -2 -16 6 -24 16 -8 10 -19 16 -25 12 -31 -19 2 -122 92 -284 86 -157 99
-199 100 -302 0 -68 -4 -94 -22 -130 -34 -68 -63 -85 -147 -85 -101 0 -129 22
-145 113 -7 37 -10 87 -8 112 l3 45 55 0 55 0 8 -50 c16 -99 64 -112 60 -17
-1 50 -31 121 -87 209 -134 211 -147 473 -26 536 36 18 122 20 165 3 11 -5 7
1 -10 12 -16 10 -43 44 -60 74 l-29 56 27 35 c23 31 25 35 9 41 -9 3 -24 9
-32 13 -12 5 -13 4 -2 -9 11 -14 5 -15 -50 -11 -35 3 -69 10 -76 16 -17 14
-32 -7 -32 -46 l0 -28 31 16 c17 9 33 14 37 11 3 -3 0 -6 -7 -6 -23 0 -83 -72
-111 -134 l-29 -64 19 -38 c18 -34 20 -56 17 -202 l-2 -164 -29 -25 c-27 -23
-28 -26 -12 -35 48 -27 51 -39 51 -221 0 -126 4 -178 14 -196 18 -33 3 -41
-80 -41 -66 0 -67 0 -73 31 -3 17 -6 96 -6 176 0 144 -8 183 -35 183 -12 0
-13 -17 -8 -98 3 -53 2 -141 -2 -194 l-7 -96 -71 -4 -72 -3 0 40 c0 22 -2 195
-3 385 l-2 346 -67 -4 c-63 -4 -71 -2 -112 28 -30 22 -42 27 -38 15 4 -9 7
-70 7 -135 l0 -119 58 -3 57 -3 3 -72 c3 -67 4 -72 30 -82 22 -9 15 -10 -38
-7 -36 2 -75 7 -88 11 l-23 7 3 -128 3 -129 60 -3 c106 -4 105 -3 105 -77 l0
-64 -154 -3 -153 -3 -7 130 c-3 72 -6 288 -7 480 l-2 350 44 3 c35 3 49 10 69
35 l25 32 -36 -28 c-24 -18 -48 -27 -72 -27 -42 0 -89 19 -81 32 3 5 1 15 -5
22 -8 10 -1 28 28 73 21 32 49 68 62 79 13 10 30 30 37 44 6 14 27 45 46 70
33 42 66 98 108 181 10 19 26 72 36 118 10 45 21 79 25 75 4 -4 7 -164 7 -355
0 -221 4 -350 10 -354 6 -3 10 -37 10 -74 0 -62 2 -70 25 -85 l25 -16 0 84 0
84 78 4 c77 3 159 -4 197 -16 19 -7 22 0 38 76 9 46 17 128 18 183 0 91 1 97
12 65 11 -31 17 -35 51 -38 53 -5 89 29 84 77 -4 27 0 35 19 44 24 11 33 30 9
21 -8 -3 -17 -1 -20 5 -6 10 -61 -12 -71 -30 -4 -5 -19 -9 -36 -9 -16 0 -29
-4 -29 -9 0 -18 -40 -7 -46 13 -4 11 -14 27 -22 36 -55 54 -173 303 -209 439
-8 30 -23 66 -33 79 -48 60 -74 187 -49 234 9 17 8 24 -6 34 -9 7 -14 18 -10
24 10 17 30 -16 40 -65 10 -48 10 -81 0 -117 -4 -17 -3 -28 3 -28 6 0 13 -8
15 -17 3 -10 5 1 6 25 1 25 5 41 11 37 5 -3 15 3 22 15 7 11 18 20 25 20 7 0
13 3 13 8 0 4 28 8 63 9 l62 2 -52 -13 c-63 -16 -111 -45 -93 -56 7 -4 9 -13
6 -19 -4 -6 -12 -8 -18 -5 -13 8 -1 -50 17 -85 8 -16 14 -20 19 -12 4 7 1 23
-8 36 -20 30 -20 45 -1 45 8 0 15 3 15 8 0 4 21 7 48 7 26 0 58 4 71 9 16 6
21 5 17 -3 -4 -6 -1 -11 7 -11 26 0 25 -25 0 -55 -14 -17 -22 -23 -17 -15 4 8
-14 -5 -40 -30 l-48 -45 6 -55 c4 -30 10 -56 16 -58 5 -2 7 -9 4 -17 -11 -29
17 -24 34 5 9 18 26 44 37 58 l20 27 5 -35 c4 -29 11 -36 38 -44 22 -6 36 -6
44 2 6 6 11 70 12 166 2 156 2 156 -20 156 -27 0 -74 20 -74 31 0 14 -100 71
-115 65 -8 -3 -17 -1 -20 4 -4 6 -1 10 4 10 6 0 11 7 11 15 0 9 12 18 30 21
25 5 27 8 15 20 -7 8 -11 23 -8 35 6 20 11 21 87 17 45 -3 69 -3 55 -1 -16 3
-29 12 -32 24 -5 19 -27 27 -27 9 0 -5 -17 -10 -37 -10 -26 0 -33 3 -24 9 10
7 11 13 2 27 -6 11 -11 13 -11 7 0 -7 -9 -13 -21 -13 -11 0 -29 -5 -39 -10
-11 -6 -21 -6 -24 -1 -3 5 6 12 22 16 34 8 52 23 52 43 0 20 39 62 57 62 7 0
13 6 13 14 0 13 56 46 79 46 5 0 14 7 19 16 5 9 11 15 13 13 7 -4 139 42 145
52 3 5 -8 23 -25 40 -35 35 -39 45 -13 34 34 -15 80 -15 86 1 4 11 10 12 25 4
31 -16 38 -11 12 10 -13 11 -30 20 -39 20 -12 0 -13 3 -4 12 9 9 6 17 -13 34
-26 24 -23 39 6 23 15 -7 19 -6 19 6 0 19 24 19 40 0 7 -9 15 -13 18 -10 3 3
-3 14 -12 24 -17 19 -17 19 0 17 11 -2 22 -16 26 -34 11 -41 19 -42 12 -2 -8
38 3 39 18 3 8 -21 12 -24 15 -11 3 10 10 15 19 11 8 -3 14 0 14 6 0 6 -8 11
-18 11 -25 0 -51 33 -38 47 8 7 18 6 36 -7 17 -11 39 -15 69 -12z m-1004 12
c-3 -5 -14 -10 -23 -9 -14 0 -13 2 3 9 27 11 27 11 20 0z m1313 -43 c-1 -2 3
-11 11 -21 16 -19 27 -91 12 -82 -5 3 -12 20 -15 38 -3 18 -8 44 -11 57 -2 13
-2 21 1 18 3 -3 4 -7 2 -10z m-1810 -14 c15 -10 30 -22 34 -28 5 -6 8 -6 8 0
0 6 4 4 8 -2 14 -22 76 -23 108 -2 22 14 47 19 99 19 66 0 73 -2 116 -37 26
-21 73 -76 105 -123 55 -80 59 -88 59 -145 0 -58 -12 -105 -27 -105 -15 0 -8
-48 7 -54 8 -3 15 -12 15 -21 0 -8 4 -15 9 -15 10 0 27 -39 23 -52 -1 -5 3 -7
9 -5 6 1 14 -4 16 -10 3 -7 -1 -13 -8 -13 -8 0 -7 -6 4 -18 18 -20 22 -65 11
-129 -7 -48 5 -56 38 -26 19 17 19 15 15 -92 -4 -109 -29 -227 -64 -305 -9
-19 -35 -57 -59 -83 -24 -27 -55 -72 -69 -100 -35 -72 -132 -176 -196 -212
-52 -29 -59 -30 -179 -29 -69 0 -132 4 -142 10 -9 5 -35 26 -58 48 -40 37 -41
39 -23 56 29 26 84 50 139 59 72 12 78 14 93 34 22 30 -12 49 -76 41 -35 -3
-53 -2 -53 5 0 6 4 11 10 11 5 0 7 6 4 14 -6 15 72 25 223 29 37 1 61 6 60 12
-4 13 -91 24 -226 30 -100 4 -144 17 -108 31 9 3 17 14 17 23 0 10 14 39 31
64 l31 47 48 -6 c42 -6 49 -4 59 15 9 17 9 20 -3 15 -8 -3 -28 2 -46 11 -29
15 -34 15 -55 1 -29 -19 -86 -21 -103 -4 -7 7 -12 20 -12 30 0 10 -4 18 -10
18 -15 0 -12 21 5 34 12 9 18 44 26 139 5 70 10 131 11 135 6 22 -16 51 -42
57 -21 5 -30 13 -30 27 0 18 -2 19 -17 7 -13 -11 -17 -12 -21 -1 -8 26 -51 33
-90 15 -20 -9 -52 -17 -70 -18 -34 -2 -57 -23 -68 -62 -3 -13 -10 -23 -14 -23
-11 0 0 -162 11 -175 5 -5 9 -16 9 -24 0 -13 -3 -12 -17 2 -15 15 -19 40 -21
145 -2 80 0 122 6 113 5 -7 12 -9 15 -4 5 8 19 75 19 90 0 5 4 16 9 26 5 9 6
17 2 17 -5 0 -14 14 -20 30 -7 20 -18 30 -31 30 -15 0 -22 8 -24 28 -4 31 17
103 33 113 6 3 21 36 34 72 40 116 92 162 178 159 23 -1 47 4 56 12 9 8 27 20
41 26 14 6 36 17 50 25 33 19 45 19 78 -2z m477 7 c4 -6 11 -7 17 -4 7 4 8 2
4 -4 -5 -9 -13 -9 -27 -2 -10 6 -19 13 -19 15 0 9 19 5 25 -5z m662 -26 c-3
-3 -12 -4 -19 -1 -8 3 -5 6 6 6 11 1 17 -2 13 -5z m603 -56 c0 -19 -2 -20 -10
-8 -13 19 -13 30 0 30 6 0 10 -10 10 -22z m-11 -48 c0 -10 -3 -8 -9 5 -12 27
-12 43 0 25 5 -8 9 -22 9 -30z m-43 -28 c-6 -6 -45 38 -46 52 0 5 11 -3 26
-19 14 -15 23 -30 20 -33z m21 6 c-3 -8 -6 -5 -6 6 -1 11 2 17 5 13 3 -3 4
-12 1 -19z m116 -16 c-7 -7 -13 -25 -14 -40 0 -24 -1 -25 -9 -7 -12 28 -12 47
1 39 6 -3 10 1 9 12 -4 31 -1 35 13 22 12 -10 12 -15 0 -26z m202 -92 c-3 -5
-1 -11 5 -15 17 -10 -1 -58 -32 -85 -15 -13 -28 -31 -28 -39 0 -11 -4 -10 -13
4 -14 21 -30 72 -20 61 4 -3 15 6 24 21 10 15 14 30 9 33 -5 3 -1 21 7 39 l17
34 18 -23 c10 -12 16 -26 13 -30z m-383 -42 c-7 -7 -10 -5 -7 8 5 29 6 30 12
16 3 -8 1 -18 -5 -24z m-832 -64 c0 -17 21 -23 50 -13 l25 9 -24 -20 c-13 -11
-29 -20 -36 -20 -7 0 -18 -7 -25 -15 -13 -16 -23 -85 -11 -85 13 0 0 -59 -16
-72 -13 -10 -14 -7 -8 24 4 19 2 78 -5 131 -6 53 -8 102 -5 108 8 12 55 -27
55 -47z m2673 -211 c8 -7 -11 -33 -23 -33 -5 0 -6 9 -3 20 5 20 15 25 26 13z
m-120 -17 c4 -10 1 -13 -8 -9 -8 3 -12 9 -9 14 7 12 11 11 17 -5z m-2589 -33
c-7 -39 -14 -42 -14 -5 0 18 4 32 9 32 5 0 7 -12 5 -27z m1174 -8 c-3 -3 -9 2
-12 12 -6 14 -5 15 5 6 7 -7 10 -15 7 -18z m-38 -40 c0 -8 -4 -15 -9 -15 -5 0
-11 7 -15 15 -3 9 0 15 9 15 8 0 15 -7 15 -15z m-2187 -10 c-4 -14 -51 -28
-69 -21 -13 5 -14 9 -3 22 13 16 76 16 72 -1z m3455 -36 c1 -17 3 -33 3 -37 5
-29 -5 -56 -29 -83 -25 -28 -31 -30 -50 -20 -28 15 -28 31 1 31 25 1 57 22 57
39 0 14 -27 15 -35 1 -3 -5 -15 -10 -26 -10 -14 0 -19 7 -19 26 0 21 3 25 18
19 50 -21 54 -20 47 18 -4 20 -4 40 -1 46 12 19 32 1 34 -30z m-2278 1 c8 -16
8 -20 -3 -20 -18 0 -39 24 -30 33 11 12 22 8 33 -13z m104 11 c3 -5 -1 -11 -9
-15 -9 -3 -15 0 -15 9 0 16 16 20 24 6z m-1230 -53 c15 7 42 12 60 12 l32 0
-7 -65 c-5 -36 -11 -70 -14 -74 -3 -5 -11 -56 -18 -113 -13 -95 -35 -158 -57
-158 -15 0 -70 70 -70 89 0 16 -43 77 -71 101 -13 11 -26 68 -19 80 5 7 19 11
34 8 15 -3 26 -1 26 6 0 16 63 56 88 56 11 0 23 4 26 8 2 4 -11 6 -30 4 -26
-3 -34 -1 -32 9 2 8 -3 13 -9 12 -7 -2 -13 2 -13 7 0 6 5 10 11 10 8 0 9 4 0
13 -6 8 -8 17 -5 20 4 3 14 -4 24 -16 16 -19 21 -20 44 -9z m-197 -280 c-3 -8
-6 -5 -6 6 -1 11 2 17 5 13 3 -3 4 -12 1 -19z m-20 -30 c-3 -8 -6 -5 -6 6 -1
11 2 17 5 13 3 -3 4 -12 1 -19z m3763 -19 c0 -5 -4 -9 -10 -9 -5 0 -10 7 -10
16 0 8 5 12 10 9 6 -3 10 -10 10 -16z m17 -15 c-3 -4 -2 -15 3 -25 15 -27 -6
-33 -24 -7 -15 21 -15 23 1 30 24 9 28 9 20 2z m733 -64 c24 -35 29 -51 55
-180 13 -63 28 -135 34 -160 18 -82 30 -426 20 -580 -18 -275 -88 -715 -142
-890 l-23 -75 -7 91 c-4 50 -11 113 -16 140 -5 27 -15 101 -21 164 -16 156
-75 505 -94 559 -9 24 -32 69 -51 101 -34 56 -35 59 -20 93 19 47 29 52 62 29
95 -64 203 -125 210 -118 6 5 -158 217 -206 267 l-47 49 -54 -20 c-79 -29
-106 -25 -50 6 29 16 36 23 20 20 -14 -3 -30 -6 -37 -6 -7 0 -28 -21 -48 -47
l-36 -47 43 -21 c70 -35 88 -72 88 -177 0 -76 -3 -89 -17 -94 -10 -4 -37 -15
-60 -25 -24 -10 -50 -19 -58 -19 -8 0 -15 -5 -15 -11 0 -5 29 -67 65 -137 79
-152 94 -216 77 -324 -18 -120 -58 -156 -190 -169 -73 -8 -98 -7 -124 5 l-33
14 33 1 c34 1 40 9 20 29 -8 8 -14 53 -16 123 l-4 110 58 -3 59 -3 6 -63 c7
-73 19 -91 43 -67 10 10 16 33 16 60 0 34 -17 77 -84 208 -66 130 -87 181 -96
238 -23 137 5 263 67 301 l27 16 -49 7 c-28 4 -59 13 -70 20 -11 7 -29 9 -40
5 -11 -4 -41 -6 -68 -5 -61 2 -74 19 -71 94 1 40 -3 61 -15 75 -13 15 -13 18
-1 11 8 -4 5 2 -7 14 -28 27 -29 35 -3 28 11 -3 20 -1 20 4 0 5 -9 9 -19 9
-43 0 -54 77 -31 206 19 104 30 129 30 68 0 -70 75 -165 195 -247 33 -22 80
-57 105 -77 72 -59 99 -73 143 -76 23 -1 65 -5 92 -9 44 -5 54 -2 80 20 l30
25 -42 -16 c-49 -19 -111 -9 -104 17 2 8 3 22 3 32 0 9 3 17 7 17 5 0 46 37
93 83 83 81 120 135 205 296 25 47 39 66 42 54 2 -10 11 -29 21 -43z m-1918
-117 c-1 -24 -5 -49 -9 -56 -10 -16 -7 -163 4 -179 4 -7 6 -22 5 -33 -2 -19
-2 -19 17 3 10 12 24 22 29 22 10 0 72 66 72 76 0 4 -7 4 -14 1 -10 -4 -13 -1
-10 8 3 7 1 22 -5 33 -9 16 -8 20 5 18 8 -1 23 -9 32 -17 10 -9 27 -19 37 -23
19 -7 19 -8 -4 -20 -13 -7 -53 -42 -90 -78 -55 -54 -72 -80 -100 -148 -18 -45
-35 -80 -37 -77 -2 2 0 73 5 158 6 85 13 219 17 299 l7 145 20 -44 c11 -25 19
-64 19 -88z m-2279 36 c-3 -11 -9 -22 -14 -25 -15 -9 -10 -29 11 -54 11 -13
20 -28 20 -34 0 -16 -64 -13 -85 4 -24 20 -15 98 14 121 27 22 61 14 54 -12z
m141 -145 c4 -10 1 -14 -6 -12 -15 5 -23 28 -10 28 5 0 13 -7 16 -16z m1896
-164 c0 -5 -7 -7 -15 -4 -8 4 -15 8 -15 10 0 2 7 4 15 4 8 0 15 -4 15 -10z
m47 -32 c-3 -8 -6 -5 -6 6 -1 11 2 17 5 13 3 -3 4 -12 1 -19z m-2059 -141 c17
-35 19 -53 13 -98 l-8 -54 -7 40 c-5 22 -14 72 -22 110 -8 39 -13 88 -13 110
1 38 2 37 9 -13 4 -28 17 -71 28 -95z m2380 124 c11 -7 11 -9 -1 -14 -9 -3
-18 1 -21 9 -6 16 2 18 22 5z m-267 -24 c-13 -13 -26 -3 -16 12 3 6 11 8 17 5
6 -4 6 -10 -1 -17z m-8 -37 c-3 -11 -10 -20 -15 -20 -6 0 -8 -7 -5 -15 4 -8 1
-17 -5 -21 -7 -4 -8 -3 -4 4 10 17 -9 15 -24 -3 -6 -8 -9 -19 -5 -26 5 -8 2
-8 -11 -1 -11 5 -28 8 -39 6 -19 -3 -19 -2 -2 10 9 7 17 19 17 27 0 11 2 11
10 -1 9 -13 10 -13 11 0 0 9 2 11 5 3 6 -15 54 24 54 44 0 7 4 13 9 13 5 0 7
-9 4 -20z m24 -52 c-3 -7 -5 -2 -5 12 0 14 2 19 5 13 2 -7 2 -19 0 -25z
m-1723 -135 c3 -42 6 -234 6 -427 0 -392 -1 -398 -69 -443 -60 -41 -184 -24
-224 29 -15 20 -21 53 -28 143 -5 65 -11 120 -13 122 -12 13 -17 -98 -7 -179
7 -59 7 -96 1 -102 -6 -6 -4 -16 6 -27 13 -15 12 -19 -11 -48 -33 -38 -87 -62
-240 -107 -66 -20 -131 -43 -145 -52 -14 -9 -28 -16 -32 -14 -4 1 -24 -21 -45
-48 -21 -27 -44 -51 -50 -54 -10 -4 -13 48 -13 242 l1 247 45 39 c26 22 52 39
59 39 7 0 11 6 8 14 -3 8 0 11 9 8 18 -7 38 16 42 47 4 33 22 64 85 143 55 68
79 88 73 59 -5 -23 7 -16 23 16 19 36 19 44 0 36 -23 -9 -18 10 9 31 27 22
105 45 216 65 79 14 78 12 64 71 -4 19 -1 33 9 45 9 10 14 27 11 39 -7 26 10
37 36 23 28 -15 26 -58 -5 -111 l-25 -44 23 -5 c15 -4 24 -16 27 -35 12 -65 2
-76 -95 -99 -11 -3 5 -3 36 -1 l57 5 6 -31 c3 -17 6 -38 6 -46 0 -23 -82 -93
-110 -94 -15 -1 -10 -4 15 -8 l40 -6 3 -95 c3 -89 17 -150 34 -150 4 0 14 10
21 23 12 18 13 84 6 407 -5 212 -7 391 -4 398 3 8 26 12 68 12 l64 0 7 -77z
m1660 50 c3 -16 13 -73 21 -128 9 -55 17 -104 19 -110 1 -5 10 40 20 100 26
171 17 155 86 155 33 0 60 -3 60 -8 0 -7 -56 -278 -94 -460 -11 -48 -16 -126
-16 -225 0 -84 -3 -175 -6 -204 l-7 -51 -57 -4 -57 -3 -2 208 c-2 205 -3 211
-55 477 l-53 269 31 4 c89 11 104 8 110 -20z m637 6 c9 -5 29 -23 44 -40 l27
-32 -4 -178 c-3 -155 -5 -179 -21 -197 -19 -20 -18 -22 8 -56 27 -35 27 -37
23 -168 -3 -120 -5 -137 -28 -177 -42 -74 -65 -85 -191 -91 l-110 -5 5 305 c3
168 5 382 6 477 l0 172 68 4 c78 4 150 -1 173 -14z m391 -11 c60 -46 61 -48
51 -450 -8 -337 -10 -366 -29 -402 -30 -59 -61 -77 -145 -86 -56 -6 -80 -5
-99 6 -14 7 -22 13 -18 14 4 0 -2 19 -15 42 -19 38 -22 60 -25 198 -2 85 1
259 5 385 8 215 10 232 30 261 34 47 77 65 149 61 48 -2 69 -9 96 -29z m199
15 c8 -9 38 -180 40 -227 1 -30 30 99 43 197 l7 47 65 0 c35 0 64 -1 64 -2 0
-2 -29 -130 -64 -286 l-63 -283 -2 -187 c-1 -103 -5 -190 -9 -193 -4 -4 -36
-9 -72 -11 -36 -3 -59 -3 -52 0 9 3 12 52 12 200 0 193 -1 202 -50 467 -28
148 -50 273 -50 277 0 15 117 16 131 1z m709 -13 c0 -5 -4 -10 -9 -10 -5 0
-18 -3 -28 -6 -16 -5 -16 -4 1 10 23 18 36 20 36 6z m-3265 -262 c-8 -37 -25
-61 -25 -36 0 21 18 68 26 68 3 0 3 -15 -1 -32z m1565 -108 c23 -23 24 -29 10
-65 -7 -20 -16 -26 -33 -23 -19 3 -22 10 -25 56 -3 58 12 68 48 32z m-1150
-102 c0 -13 -23 -5 -28 10 -2 7 2 10 12 6 9 -3 16 -11 16 -16z m160 -103 c0
-18 -29 -19 -52 -1 -21 15 -22 26 -7 60 l12 25 23 -35 c13 -19 24 -41 24 -49z
m2215 1 c21 -54 15 -84 -7 -41 -9 17 -19 45 -23 64 -10 47 9 32 30 -23z
m-1297 32 c27 -27 8 -88 -27 -88 -13 0 -13 2 -2 9 9 6 10 11 2 15 -6 4 -11 20
-11 35 0 40 15 52 38 29z m-210 -67 c3 -61 -5 -80 -30 -81 -5 0 -8 34 -8 76 0
66 2 75 18 72 14 -3 18 -16 20 -67z m229 -43 c-3 -7 -5 -2 -5 12 0 14 2 19 5
13 2 -7 2 -19 0 -25z m-2 -38 c3 -5 1 -10 -4 -10 -6 0 -11 5 -11 10 0 6 2 10
4 10 3 0 8 -4 11 -10z m62 -61 c30 -11 39 -51 18 -82 -15 -23 -88 -57 -122
-57 -9 0 -13 18 -13 66 0 57 3 67 20 71 11 3 20 9 20 14 0 9 34 4 77 -12z
m1631 -6 c-5 -25 -28 -28 -28 -4 0 12 6 21 16 21 9 0 14 -7 12 -17z m-1930
-164 c-25 -16 -28 -9 -28 65 0 63 3 75 18 78 15 3 17 -6 20 -66 2 -49 -1 -72
-10 -77z m-1604 -14 c-33 -15 -87 -9 -62 6 7 5 31 8 53 8 l40 -1 -31 -13z
m-182 -167 c-9 -9 -12 -7 -12 12 0 19 3 21 12 12 9 -9 9 -15 0 -24z m2034 -55
c-10 -10 -19 5 -10 18 6 11 8 11 12 0 2 -7 1 -15 -2 -18z m7 -28 c-3 -9 -8
-14 -10 -11 -3 3 -2 9 2 15 9 16 15 13 8 -4z"/>
<path d="M4620 2804 c-14 -7 -34 -14 -45 -14 -29 0 -99 -43 -103 -62 -3 -16 0
-16 50 -2 29 9 66 23 82 31 18 9 53 15 87 14 32 0 60 3 63 8 5 8 -81 42 -101
40 -4 -1 -19 -7 -33 -15z"/>
<path d="M4545 2715 c-45 -20 -89 -60 -81 -73 4 -7 26 -12 49 -12 28 0 37 3
28 9 -9 6 -11 16 -7 27 6 16 10 14 24 -16 17 -35 18 -35 46 -22 16 8 31 23 33
33 6 23 21 25 29 4 4 -8 16 -15 29 -15 18 0 22 4 18 20 -11 42 -114 69 -168
45z"/>
<path d="M4114 2681 c-42 -7 -100 -38 -90 -48 7 -8 -24 -66 -40 -76 -26 -15
-4 -35 39 -33 35 1 42 4 42 21 0 13 9 23 25 28 122 37 151 9 156 -149 l4 -91
-50 -62 c-53 -66 -67 -113 -30 -104 11 3 34 0 51 -8 30 -12 30 -13 10 -20 -26
-10 -26 -20 -2 -48 13 -15 35 -24 71 -28 46 -5 52 -4 56 14 6 21 52 32 206 49
70 8 66 26 -6 24 -28 -1 -91 -1 -141 -1 l-90 2 39 24 c30 18 36 26 24 30 -10
4 -14 14 -11 26 3 10 -1 26 -8 35 -9 11 -12 40 -11 88 2 42 -3 91 -12 121 -9
28 -16 76 -16 108 0 55 -1 58 -21 52 -14 -5 -37 2 -68 18 -59 32 -77 36 -127
28z m-30 -60 c-9 -10 -26 18 -18 30 5 9 9 8 14 -7 4 -10 6 -21 4 -23z m108 7
c-15 -15 -24 -6 -16 16 5 12 10 14 17 7 8 -8 8 -14 -1 -23z m78 -38 c0 -5 -2
-10 -4 -10 -3 0 -8 5 -11 10 -3 6 -1 10 4 10 6 0 11 -4 11 -10z m45 -300 c-3
-5 -15 -10 -26 -10 -10 0 -19 5 -19 10 0 6 12 10 26 10 14 0 23 -4 19 -10z"/>
<path d="M4510 2600 c0 -5 7 -10 16 -10 8 0 12 5 9 10 -3 6 -10 10 -16 10 -5
0 -9 -4 -9 -10z"/>
<path d="M4461 2276 l-23 -25 35 17 c20 8 34 19 31 24 -8 13 -19 9 -43 -16z"/>
<path d="M4053 2212 c1 -12 5 -22 9 -22 4 0 8 -7 8 -15 0 -19 21 -65 31 -65
11 0 -19 93 -36 109 -12 12 -14 11 -12 -7z"/>
<path d="M4780 2095 c-7 -9 -8 -15 -2 -15 5 0 12 7 16 15 3 8 4 15 2 15 -2 0
-9 -7 -16 -15z"/>
<path d="M4355 2026 c-18 -13 -17 -14 14 -21 38 -8 101 13 79 26 -20 13 -72
10 -93 -5z"/>
<path d="M4706 2023 c-4 -5 -12 -8 -18 -8 -5 0 -16 -16 -24 -35 l-15 -35 40
40 c23 21 41 40 41 42 0 6 -17 3 -24 -4z"/>
<path d="M3418 3153 c7 -3 16 -2 19 1 4 3 -2 6 -13 5 -11 0 -14 -3 -6 -6z"/>
<path d="M3270 3091 c0 -5 -8 -12 -17 -14 -10 -3 -6 -4 10 -4 24 1 41 27 17
27 -5 0 -10 -4 -10 -9z"/>
<path d="M3180 2980 c0 -5 5 -10 11 -10 5 0 7 5 4 10 -3 6 -8 10 -11 10 -2 0
-4 -4 -4 -10z"/>
<path d="M2872 2619 c2 -7 10 -15 17 -17 8 -3 12 1 9 9 -2 7 -10 15 -17 17 -8
3 -12 -1 -9 -9z"/>
<path d="M2890 2580 c0 -17 30 -24 43 -11 9 9 8 11 -5 6 -11 -4 -18 -2 -18 4
0 6 -4 11 -10 11 -5 0 -10 -5 -10 -10z"/>
<path d="M3255 2535 c-33 -6 -70 -17 -82 -23 -32 -18 -29 -36 3 -28 15 4 40 9
58 11 27 5 28 4 6 -4 -14 -4 -48 -20 -77 -35 -29 -14 -60 -26 -69 -26 -23 0
-12 -22 19 -40 23 -13 30 -13 48 -1 19 11 21 11 16 -2 -7 -17 34 -29 55 -16 7
5 9 9 3 10 -5 0 11 7 38 15 26 8 47 18 47 23 0 9 5 10 83 17 l58 6 -28 24
c-15 13 -33 24 -39 24 -24 0 -76 33 -64 40 23 14 -14 17 -75 5z m22 -101 c-3
-3 -15 0 -27 6 -17 9 -19 14 -9 26 10 12 14 11 26 -6 8 -12 13 -24 10 -26z"/>
<path d="M3690 2285 c0 -8 2 -15 4 -15 2 0 6 7 10 15 3 8 1 15 -4 15 -6 0 -10
-7 -10 -15z"/>
<path d="M3237 2165 c27 -50 57 -75 88 -75 29 0 95 -43 111 -71 l13 -24 1 23
c0 31 -15 45 -73 67 -26 10 -47 22 -47 26 0 5 -6 9 -14 9 -7 0 -20 10 -29 23
-22 32 -56 67 -67 67 -5 0 3 -20 17 -45z"/>
<path d="M3116 2068 l-48 -31 -47 16 c-92 31 -88 32 -109 -10 -11 -21 -22 -52
-25 -68 l-6 -31 47 2 c26 1 60 6 76 10 21 5 27 4 22 -5 -4 -6 -1 -11 9 -11 9
0 14 4 11 9 -8 12 14 71 26 71 5 0 15 -13 21 -30 6 -16 15 -30 19 -30 13 0 9
22 -8 41 -14 16 -14 19 5 38 12 12 29 21 40 21 21 0 45 23 34 33 -10 11 -17 9
-67 -25z"/>
<path d="M3319 1974 c-40 -28 -140 -48 -245 -48 -46 0 -60 -4 -57 -13 3 -8 -3
-13 -13 -14 -67 -2 -91 -17 -75 -47 8 -16 23 -21 68 -24 78 -5 103 1 103 22 0
21 66 56 124 65 21 4 52 15 70 26 37 23 74 25 82 4 9 -23 24 -7 24 26 0 23 -4
29 -23 29 -12 0 -39 -12 -58 -26z"/>
<path d="M3727 1893 c-4 -3 -7 -11 -7 -17 0 -6 5 -5 12 2 6 6 9 14 7 17 -3 3
-9 2 -12 -2z"/>
<path d="M3125 1819 c-9 -14 4 -27 13 -13 4 6 14 14 22 17 10 4 8 6 -7 6 -12
1 -25 -4 -28 -10z"/>
<path d="M3443 1710 c-32 -19 -41 -30 -25 -30 8 1 70 50 62 50 -3 0 -20 -9
-37 -20z"/>
<path d="M3250 1570 c-13 -9 -13 -10 0 -10 8 0 22 5 30 10 13 9 13 10 0 10 -8
0 -22 -5 -30 -10z"/>
<path d="M2780 1077 c0 -108 2 -129 16 -134 26 -10 34 16 34 115 0 85 -2 95
-25 120 l-25 27 0 -128z"/>
<path d="M2038 2563 c-61 -4 -69 -7 -88 -32 -25 -36 -25 -39 4 -75 18 -21 30
-27 46 -23 16 4 20 2 16 -9 -3 -8 -1 -14 3 -14 5 0 15 -2 23 -5 7 -3 18 4 23
17 14 32 30 32 44 2 10 -24 16 -26 51 -21 22 3 43 1 46 -4 9 -15 44 -10 44 6
0 18 1 18 34 5 22 -8 26 -7 26 8 0 25 -75 59 -150 68 -64 7 -68 17 -11 31 19
5 36 13 38 19 3 10 -55 36 -73 32 -5 -1 -39 -3 -76 -5z m172 -133 c0 -5 -5
-10 -11 -10 -5 0 -7 5 -4 10 3 6 8 10 11 10 2 0 4 -4 4 -10z"/>
<path d="M2175 2390 c-3 -6 1 -7 9 -4 18 7 21 14 7 14 -6 0 -13 -4 -16 -10z"/>
<path d="M5966 1896 c-3 -31 -3 -68 0 -81 4 -18 -4 -46 -30 -96 -42 -82 -34
-83 19 -3 30 45 38 68 42 118 4 44 1 71 -9 91 l-15 28 -7 -57z"/>
<path d="M5491 1181 c-11 -7 -12 -22 -8 -62 8 -63 17 -75 46 -60 17 9 21 21
21 56 0 38 -3 45 -20 45 -13 0 -18 5 -14 15 7 17 -4 19 -25 6z"/>
<path d="M1746 859 c-22 -26 -25 -34 -14 -48 7 -9 13 -17 14 -19 1 -2 11 3 23
10 25 15 27 31 5 49 -14 12 -14 14 2 26 10 7 13 13 7 13 -6 0 -23 -14 -37 -31z"/>
<path d="M4416 1166 c-12 -19 -16 -50 -16 -130 0 -58 3 -107 8 -109 4 -3 17
-1 30 4 22 8 23 12 20 130 -3 129 -12 150 -42 105z"/>
<path d="M4417 776 c-16 -12 -17 -28 -15 -137 3 -118 4 -124 23 -121 37 6 45
31 45 142 0 123 -11 148 -53 116z"/>
<path d="M4784 1189 c-18 -20 -19 -43 -23 -320 -3 -323 0 -369 27 -369 46 1
46 0 50 349 4 289 3 332 -11 345 -20 20 -20 20 -43 -5z"/>
<path d="M5890 2747 c-34 -17 -88 -34 -130 -43 -25 -5 -48 -22 -82 -60 -50
-57 -64 -101 -29 -89 11 3 28 1 39 -6 11 -7 28 -9 38 -5 15 6 16 9 5 16 -9 5
-11 15 -7 26 7 17 9 16 22 -8 21 -41 70 -39 88 2 9 22 15 27 23 19 6 -6 9 -18
6 -25 -9 -25 36 -16 53 11 18 28 14 40 -20 49 -14 3 -38 11 -53 17 l-28 11 45
23 c50 27 80 31 98 13 9 -9 12 -8 12 5 0 17 -33 57 -47 57 -5 0 -19 -6 -33
-13z"/>
<path d="M2201 234 c0 -11 3 -14 6 -6 3 7 2 16 -1 19 -3 4 -6 -2 -5 -13z"/>
<path d="M3902 189 c-29 -4 -55 -9 -57 -11 -2 -2 -7 -43 -11 -91 l-7 -87 77 0
c85 0 82 -4 63 80 -14 62 -15 80 -4 97 11 17 -2 20 -61 12z"/>
</g>
</svg>
