<?xml version="1.0" standalone="no"?>
<!DOCTYPE svg PUBLIC "-//W3C//DTD SVG 20010904//EN"
 "http://www.w3.org/TR/2001/REC-SVG-20010904/DTD/svg10.dtd">
<svg version="1.0" xmlns="http://www.w3.org/2000/svg"
 width="368.000000pt" height="228.000000pt" viewBox="0 0 368.000000 228.000000"
 preserveAspectRatio="xMidYMid meet">

<g transform="translate(0.000000,228.000000) scale(0.100000,-0.100000)"
fill="#000000" stroke="none">
<path d="M0 1140 l0 -1140 43 1 c30 0 36 3 23 8 -26 10 -14 16 64 30 36 7 90
19 120 26 160 42 445 79 695 90 77 4 156 9 175 10 19 2 42 4 52 4 9 1 21 13
27 29 l11 27 -5 -30 c-17 -95 -17 -116 -1 -134 9 -9 13 -20 10 -24 -23 -22
232 -37 539 -31 322 6 354 9 337 29 -9 11 -6 19 15 37 20 17 27 34 28 61 l1
38 71 -5 c38 -3 169 -8 290 -11 121 -3 312 -13 425 -21 187 -13 260 -20 535
-54 50 -7 106 -18 126 -25 20 -8 39 -12 42 -9 3 3 17 -2 31 -11 l26 -17 0
1131 0 1131 -1840 0 -1840 0 0 -1140z m1588 814 c47 -34 71 -64 72 -86 0 -10
-7 -18 -15 -18 -9 0 -19 -16 -26 -43 -10 -40 -13 -43 -44 -43 -62 0 -63 -22
-1 -26 28 -2 40 -8 46 -23 11 -29 41 -46 125 -74 39 -12 84 -30 102 -39 l32
-17 -42 -35 c-22 -19 -38 -29 -33 -22 4 7 3 12 -2 12 -5 0 -14 -12 -21 -27 -8
-16 -17 -35 -21 -43 -4 -8 -22 -24 -41 -34 l-34 -19 28 29 c33 37 37 60 7 44
-19 -10 -20 -9 -14 16 5 18 3 25 -4 20 -6 -3 -13 -2 -17 4 -3 5 3 10 13 10 15
0 19 5 15 20 -6 23 -14 25 -31 8 -8 -8 -15 -8 -27 2 -14 12 -14 15 1 31 10 11
12 19 7 19 -6 0 -18 16 -27 35 -21 43 -30 44 -46 4 -8 -19 -18 -28 -27 -25 -8
4 -20 6 -26 6 -7 0 -6 4 3 10 18 11 14 15 -23 24 -25 6 -28 5 -22 -14 5 -14 2
-20 -9 -20 -19 0 -19 -1 -6 -34 7 -18 17 -26 34 -26 14 0 27 4 30 8 2 4 -7 8
-21 7 -14 0 -28 6 -30 12 -3 9 7 12 36 11 39 -1 41 -3 41 -32 l1 -31 19 24
c23 26 26 57 8 65 -7 3 -4 5 7 3 11 -1 19 -7 18 -12 -12 -52 -14 -98 -4 -108
6 -6 11 -32 11 -57 0 -40 5 -51 39 -84 22 -21 42 -47 45 -58 4 -18 1 -17 -23
6 -30 29 -41 32 -41 13 0 -7 -6 -21 -13 -30 -14 -20 -72 -14 -81 9 -3 7 0 11
7 9 7 -3 19 0 27 5 12 7 13 13 4 28 -7 10 -10 31 -7 46 5 22 1 28 -16 33 -11
3 -21 12 -21 20 0 9 6 13 15 9 8 -3 15 -1 15 3 0 17 -25 19 -42 3 -16 -13 -18
-13 -24 2 -3 9 -10 14 -15 11 -10 -7 -31 30 -22 39 3 3 12 1 20 -5 21 -18 15
1 -11 31 -14 17 -26 48 -30 78 -3 27 -13 55 -21 62 -27 23 -17 38 26 38 23 1
44 4 47 7 10 10 -20 25 -49 25 -29 0 -39 15 -39 60 0 36 23 50 82 50 38 1 78
17 78 33 0 3 -19 5 -42 5 -24 -1 -62 2 -86 7 -37 6 -47 4 -68 -16 -13 -12 -24
-18 -24 -13 0 17 31 54 44 54 8 0 18 6 24 13 6 6 36 13 67 15 49 3 62 -1 93
-24z m-217 -121 c-12 -20 -14 -14 -5 12 4 9 9 14 11 11 3 -2 0 -13 -6 -23z
m-4 -75 c-3 -7 -5 -2 -5 12 0 14 2 19 5 13 2 -7 2 -19 0 -25z m63 -168 c0 -21
7 -60 16 -85 13 -38 13 -57 4 -108 -6 -34 -15 -87 -19 -117 -13 -80 -21 -101
-40 -98 -9 2 -15 11 -13 20 1 8 -5 21 -13 28 -9 7 -15 29 -15 51 0 55 29 219
45 249 7 14 15 41 19 60 6 30 5 33 -6 16 -37 -55 -54 -69 -73 -59 -14 8 -23 6
-38 -7 -25 -24 -66 -34 -82 -20 -24 20 -5 38 73 68 140 55 142 55 142 2z m470
-64 c0 -2 -8 -10 -17 -17 -16 -13 -17 -12 -4 4 13 16 21 21 21 13z m17 -116
c0 -22 -3 -40 -8 -40 -5 0 -5 7 -2 17 4 10 2 14 -4 10 -8 -5 -8 2 0 23 6 16
12 30 13 30 1 0 1 -18 1 -40z m-382 0 c3 -5 1 -10 -4 -10 -6 0 -11 5 -11 10 0
6 2 10 4 10 3 0 8 -4 11 -10z m375 -77 c-1 -23 -19 -34 -45 -27 l-28 7 34 12
c19 7 35 13 37 14 1 0 2 -2 2 -6z m-150 -33 c6 -11 24 -27 40 -35 17 -9 30
-22 30 -30 0 -21 -8 -19 -43 11 -33 27 -62 74 -47 74 5 0 14 -9 20 -20z m-250
-105 c0 -8 -2 -15 -4 -15 -2 0 -6 7 -10 15 -3 8 -1 15 4 15 6 0 10 -7 10 -15z
m13 -32 c3 -5 7 -21 8 -38 3 -25 1 -29 -16 -27 -19 4 -19 3 2 -15 16 -14 22
-34 26 -78 3 -33 11 -81 18 -107 7 -27 10 -50 8 -52 -2 -2 -31 1 -64 6 -33 4
-68 9 -77 9 -16 0 -33 27 -23 37 3 3 5 0 5 -6 0 -7 5 -12 12 -12 6 0 4 8 -6
19 -24 26 -4 71 28 63 20 -5 19 -4 -4 17 l-25 21 40 -5 40 -5 -32 15 c-28 13
-31 18 -24 37 5 13 9 26 9 31 2 34 17 69 35 82 24 17 34 19 40 8z m-333 -17
c0 -2 -7 -7 -16 -10 -8 -3 -12 -2 -9 4 6 10 25 14 25 6z m-1 -29 c-2 -1 -14
-11 -26 -21 -21 -18 -22 -18 -20 3 1 15 8 21 26 21 13 0 22 -1 20 -3z m724
-89 c3 -21 2 -38 -4 -38 -5 0 -9 13 -9 29 0 16 -3 38 -6 48 -5 12 -4 15 3 8 6
-5 13 -27 16 -47z m-763 18 c0 -2 -8 -10 -17 -17 -16 -13 -17 -12 -4 4 13 16
21 21 21 13z m14 -28 c-19 -21 -19 -21 4 -16 14 4 22 2 22 -7 0 -16 -30 -24
-55 -14 -11 4 -14 8 -7 8 6 1 12 6 12 12 0 7 8 18 18 25 25 20 28 17 6 -8z
m13 -87 c-6 -14 -16 -29 -22 -33 -6 -5 -5 -8 3 -8 21 0 13 -20 -12 -31 -14 -7
-27 -22 -31 -36 -5 -21 -10 -24 -48 -21 -56 4 -62 30 -13 59 22 13 37 30 41
50 8 36 37 58 70 52 22 -5 23 -7 12 -32z m223 -105 c0 -14 -4 -28 -10 -31 -6
-4 -10 7 -10 24 0 17 5 31 10 31 6 0 10 -11 10 -24z m591 -257 c16 -8 18 -13
8 -25 -13 -16 -34 -19 -24 -4 3 6 -1 13 -9 16 -18 7 -22 24 -5 24 6 0 19 -5
30 -11z m-331 -239 c0 -5 -5 -10 -11 -10 -5 0 -7 -4 -4 -10 6 -10 -42 -26 -52
-16 -10 10 28 46 49 46 10 0 18 -4 18 -10z m414 -21 c-10 -11 -28 -26 -39 -31
-14 -8 -12 -2 9 21 33 34 61 44 30 10z m-491 -56 c-9 -3 -1 -27 27 -77 l39
-73 -30 1 c-23 1 -29 5 -26 18 3 11 -2 20 -13 23 -11 3 -24 23 -31 43 -9 25
-14 31 -17 20 -4 -23 -11 -22 -42 1 l-24 19 34 15 c19 9 49 15 65 15 17 0 24
-2 18 -5z m537 -34 c14 -25 6 -51 -14 -43 -9 3 -14 18 -14 35 1 34 13 37 28 8z
m-253 -66 c7 -14 9 -31 6 -39 -4 -10 2 -14 21 -14 14 0 26 -4 26 -9 0 -4 -12
-6 -27 -3 -25 5 -27 4 -14 -11 7 -10 24 -17 37 -17 24 0 40 -15 26 -24 -5 -3
-104 -6 -219 -7 -234 -2 -300 10 -167 30 44 6 93 16 109 21 17 5 48 12 70 17
41 9 45 16 31 61 -7 21 -5 22 41 21 41 -2 51 -6 60 -26z"/>
<path d="M1420 941 c0 -10 30 -24 37 -17 3 2 -5 9 -16 16 -12 6 -21 7 -21 1z"/>
</g>
</svg>
