<?xml version="1.0" standalone="no"?>
<!DOCTYPE svg PUBLIC "-//W3C//DTD SVG 20010904//EN"
 "http://www.w3.org/TR/2001/REC-SVG-20010904/DTD/svg10.dtd">
<svg version="1.0" xmlns="http://www.w3.org/2000/svg"
 width="706.000000pt" height="356.000000pt" viewBox="0 0 706.000000 356.000000"
 preserveAspectRatio="xMidYMid meet">

<g transform="translate(0.000000,356.000000) scale(0.100000,-0.100000)"
fill="#000000" stroke="none">
<path d="M0 2606 c0 -519 3 -951 6 -959 4 -12 10 -12 30 -3 13 6 24 14 24 18
0 14 72 -1 84 -18 7 -9 18 -14 24 -10 7 4 12 1 12 -6 0 -13 69 -57 77 -50 3 2
13 -6 23 -18 11 -12 24 -19 29 -15 6 3 11 -1 11 -9 0 -18 16 -21 26 -5 5 8 8
8 14 0 3 -7 31 -13 62 -15 30 -1 59 -5 64 -9 6 -3 38 -4 72 -3 34 2 62 0 62
-5 0 -4 13 -4 28 1 17 4 36 4 46 -2 9 -5 23 -7 31 -5 16 7 40 -19 50 -52 4
-13 21 -37 37 -53 23 -22 33 -26 43 -18 11 9 12 7 8 -9 -4 -16 -1 -21 16 -21
11 0 21 -3 21 -8 0 -4 21 -15 48 -24 26 -10 57 -26 69 -37 11 -11 23 -17 26
-14 3 2 14 0 24 -6 17 -10 17 -10 1 -11 -10 0 -18 -5 -18 -11 0 -5 4 -8 9 -5
18 12 109 17 261 17 85 -1 226 5 313 13 215 20 735 10 775 -15 17 -10 31 -11
69 -1 51 12 457 18 486 6 21 -8 23 -44 2 -44 -18 0 -20 -29 -2 -36 8 -3 11
-17 9 -39 -7 -56 -15 -57 -819 -59 -815 -2 -1316 -12 -1343 -26 -10 -6 -41
-10 -69 -10 -51 0 -69 -13 -31 -23 11 -3 18 -1 15 3 -3 5 17 8 44 7 27 -2 48
0 46 3 -2 3 63 6 145 7 l147 3 7 -46 c3 -26 6 -75 6 -110 0 -34 4 -65 8 -68 5
-3 16 8 26 24 15 26 19 28 36 17 12 -7 20 -23 20 -39 0 -16 5 -28 10 -28 6 0
10 -7 10 -15 0 -8 7 -15 16 -15 8 0 13 -4 9 -9 -9 -16 37 -51 77 -57 21 -4 38
-10 38 -15 0 -5 7 -9 15 -9 7 0 18 -6 22 -14 4 -8 32 -29 60 -48 l52 -35 -32
-34 c-18 -19 -54 -53 -80 -77 -26 -24 -47 -47 -47 -52 0 -5 -20 -29 -45 -53
-25 -25 -45 -53 -45 -61 0 -9 -7 -16 -16 -16 -8 0 -13 -4 -10 -9 7 -11 -22
-23 -35 -15 -5 3 -9 -1 -9 -9 0 -10 -8 -13 -24 -10 -30 6 -62 -33 -71 -87 -6
-35 -9 -39 -29 -34 -20 5 -24 1 -29 -24 -3 -16 -9 -41 -13 -56 l-6 -26 395 0
c368 0 396 1 401 18 3 9 10 64 16 122 9 90 47 266 56 258 1 -2 21 -75 43 -163
23 -88 46 -177 51 -197 l11 -38 1834 0 c1009 0 1835 3 1835 8 0 4 -7 50 -15
102 -20 126 -52 231 -76 248 -11 7 -17 17 -14 22 3 4 -2 13 -9 20 -13 10 -12
17 2 53 14 38 18 141 10 287 -1 14 -1 96 0 183 2 148 3 157 21 157 14 0 21 8
23 27 l3 27 29 -27 c37 -34 90 -37 106 -6 7 11 14 44 17 73 l6 53 45 -43 c34
-33 43 -47 34 -56 -8 -8 -15 -8 -25 1 -12 9 -16 8 -21 -5 -16 -43 60 -62 88
-22 23 32 20 69 -9 102 -14 16 -25 30 -25 30 0 1 9 2 20 3 11 1 18 -2 16 -6
-3 -5 5 -6 18 -4 26 5 35 -9 43 -71 11 -98 51 -99 54 -1 0 17 4 39 8 50 7 16
12 9 27 -39 21 -66 49 -92 89 -82 31 8 33 33 3 38 -20 3 -23 10 -26 49 -2 39
0 47 16 51 12 3 25 23 34 53 14 42 14 52 2 89 -10 26 -13 57 -9 86 l6 46 -159
-4 -159 -4 -6 98 c-11 162 -8 512 5 617 l12 97 123 0 c133 0 190 -13 256 -57
20 -14 40 -23 43 -20 8 7 -73 61 -116 77 -21 7 -100 14 -197 17 l-163 4 0
-149 0 -149 -27 1 c-23 1 -31 -6 -44 -35 -9 -20 -33 -51 -53 -71 -20 -19 -36
-39 -36 -45 0 -5 26 -84 59 -174 32 -90 62 -174 66 -187 7 -23 6 -23 -86 -20
l-93 3 -72 185 c-39 101 -77 186 -83 188 -8 3 -11 -48 -11 -181 l0 -184 -46
-6 c-74 -8 -123 2 -130 27 -6 27 3 629 11 724 l7 73 156 -3 c141 -3 162 -5
205 -27 27 -13 58 -39 72 -59 16 -24 25 -31 25 -19 0 26 -70 91 -115 105 -22
7 -85 16 -141 19 l-101 6 -16 51 c-9 29 -23 89 -31 134 -19 109 -40 143 -96
161 -25 7 -94 34 -153 58 -88 37 -107 49 -101 62 3 9 9 24 11 34 3 9 9 17 13
17 7 0 6 17 -3 64 -5 24 21 56 45 56 9 0 22 9 28 21 7 11 17 18 24 16 7 -3 20
3 29 14 9 10 12 19 7 19 -6 0 -10 4 -10 10 0 5 3 9 8 9 4 -1 12 -1 17 0 12 1
18 108 7 115 -11 6 -3 66 9 66 8 0 5 33 -5 49 -3 4 3 16 14 26 11 10 17 22 14
26 -3 5 -1 9 4 9 5 0 15 13 22 29 13 33 39 48 51 30 4 -8 12 -3 23 14 13 18
23 23 39 19 12 -3 25 -10 29 -16 5 -7 8 -4 8 7 0 21 9 22 38 1 23 -16 37 -13
37 9 0 17 57 9 72 -10 10 -13 13 -12 25 6 7 12 18 21 25 21 7 0 22 9 33 20 11
11 22 20 25 20 3 0 9 0 13 0 4 0 8 9 8 20 0 19 -10 20 -804 20 -693 0 -803 -2
-799 -14 6 -16 -12 -26 -48 -26 -24 0 -42 -16 -31 -27 12 -12 58 -4 78 13 21
19 21 19 10 -1 -5 -11 -10 -24 -11 -30 0 -5 -16 -11 -36 -13 -44 -4 -49 -32
-6 -32 17 0 33 4 36 10 3 5 11 10 17 10 7 0 6 -5 -1 -14 -9 -11 -9 -16 -1 -21
7 -4 10 -15 7 -25 -3 -10 -1 -38 4 -63 4 -24 5 -65 1 -91 l-7 -48 -24 33 c-23
31 -23 33 -6 45 16 12 16 14 2 20 -9 3 -22 4 -29 1 -7 -2 -24 4 -38 13 -82 56
-174 82 -384 105 -246 27 -524 15 -671 -29 -25 -8 -45 -12 -45 -10 0 3 13 30
29 62 33 66 71 92 166 112 33 7 65 14 70 15 6 2 -193 4 -440 4 -444 1 -451 1
-451 -19 0 -11 4 -20 9 -20 4 0 13 -13 18 -29 l10 -29 105 1 c82 2 107 -1 114
-13 5 -8 7 -17 4 -21 -2 -4 -1 -10 4 -13 18 -11 3 -106 -28 -175 -19 -44 -30
-84 -28 -106 1 -19 0 -36 -2 -38 -3 -2 -57 -23 -120 -46 -63 -23 -134 -55
-157 -72 -23 -16 -45 -29 -49 -29 -4 0 -25 -12 -46 -26 -27 -19 -52 -27 -95
-29 -53 -3 -175 -44 -401 -134 l-53 -21 6 20 c10 31 9 170 -1 180 -5 4 -27 13
-49 20 -46 15 -125 58 -125 70 0 4 13 24 29 44 16 20 32 55 36 76 6 37 10 41
48 51 23 5 47 11 52 11 16 2 47 47 40 59 -4 5 1 19 11 30 14 16 19 39 20 108
1 48 7 97 13 109 6 11 11 25 11 31 0 8 -239 11 -795 11 l-795 0 0 -944z m5010
539 c19 -22 -5 -48 -31 -34 -30 15 -22 44 12 48 4 1 12 -6 19 -14z m-3900
-250 c0 -21 -5 -25 -31 -25 -30 0 -30 -1 -29 -42 1 -24 1 -87 1 -141 -1 -96
-2 -98 -23 -95 -23 3 -23 5 -23 143 l0 140 -27 3 c-16 2 -28 9 -28 17 0 10 19
15 73 18 39 1 75 4 80 5 4 1 7 -9 7 -23z m78 -43 l3 -63 36 3 37 3 -3 58 c-2
54 -1 57 21 57 l23 0 -2 -155 c-2 -85 -5 -155 -8 -155 -3 0 -9 0 -15 0 -6 0
-10 32 -10 75 l0 75 -40 0 -40 0 0 -75 c0 -73 -1 -75 -25 -75 l-25 0 0 161 0
160 23 -3 c20 -3 22 -9 25 -66z m302 44 c0 -10 -14 -16 -42 -18 l-43 -3 0 -45
0 -45 43 -3 c34 -3 42 -7 42 -23 0 -16 -7 -19 -41 -19 l-40 0 3 -52 3 -53 38
-3 c22 -2 37 -8 37 -16 0 -15 -43 -26 -98 -26 l-35 0 6 83 c4 45 7 117 7 160
l0 77 60 0 c46 0 60 -3 60 -14z m-120 -441 c19 -9 43 -24 52 -33 29 -24 68
-121 78 -189 10 -77 0 -121 -41 -168 l-30 -34 30 -38 c43 -54 63 -117 65 -198
1 -58 -4 -80 -28 -128 -15 -32 -38 -62 -50 -67 -11 -5 -17 -9 -12 -9 5 -1 -3
-10 -17 -22 -15 -11 -32 -19 -39 -18 -28 3 -39 -1 -32 -13 4 -8 3 -10 -2 -5
-5 5 -9 14 -9 20 0 5 -6 12 -12 15 -8 2 -13 -5 -13 -17 0 -23 -12 -26 -42 -10
-26 14 -68 3 -69 -19 -1 -16 -2 -16 -6 1 -5 19 -14 22 -29 8 -5 -5 -41 -12
-81 -14 l-72 -5 -5 41 c-3 23 -11 133 -17 244 -10 163 -10 227 1 332 12 121
10 285 -5 323 -6 16 4 18 107 20 192 5 241 2 278 -17z m625 -119 c78 -33 166
-149 190 -250 24 -100 14 -305 -16 -342 -5 -6 -6 -13 -4 -16 9 -9 -71 -123
-106 -153 -38 -32 -69 -45 -121 -51 -30 -4 -38 -1 -38 11 0 9 -5 13 -10 10 -6
-4 -8 -10 -5 -14 6 -11 -47 -1 -62 12 -9 6 -13 6 -13 -2 0 -17 -53 16 -94 59
-79 82 -115 190 -116 343 0 88 24 217 41 217 5 0 9 4 9 9 0 19 61 101 98 131
68 57 164 70 247 36z m1736 14 c19 -5 54 -26 76 -45 44 -37 109 -133 98 -144
-4 -3 -41 -20 -83 -38 -76 -31 -77 -31 -85 -10 -4 11 -5 27 -3 34 3 7 0 13 -6
13 -6 0 -8 3 -5 7 4 3 0 15 -10 25 -30 34 -119 18 -127 -22 -1 -8 -9 -35 -17
-60 -9 -30 -13 -96 -14 -200 0 -131 3 -161 19 -195 11 -22 20 -43 20 -47 1 -3
5 -10 10 -15 5 -5 6 -2 2 7 -5 9 -2 8 7 -2 9 -12 28 -18 53 -18 33 0 42 5 60
33 11 17 23 49 27 70 l6 37 -64 0 -63 0 1 98 2 97 135 0 134 0 -3 -95 c-3
-105 -28 -233 -44 -223 -6 4 -7 1 -2 -7 5 -8 1 -18 -10 -27 -11 -7 -15 -13
-11 -13 16 0 -77 -76 -107 -87 -66 -24 -187 -5 -187 29 0 7 -22 26 -50 41 -27
15 -54 36 -59 45 -6 9 -11 13 -11 7 -1 -22 -37 74 -51 135 -20 94 -18 262 5
329 19 57 62 127 105 174 59 65 161 92 252 67z m-1167 -15 c67 -18 135 -61
167 -108 12 -17 28 -37 36 -43 34 -28 56 -126 56 -244 0 -121 -25 -246 -46
-233 -6 4 -8 0 -4 -9 3 -10 -3 -19 -19 -27 -13 -6 -24 -18 -24 -26 0 -9 -4
-13 -10 -10 -5 3 -10 1 -10 -5 0 -14 -25 -40 -38 -40 -5 0 -15 -6 -21 -14 -7
-8 -27 -18 -44 -22 -18 -3 -36 -10 -42 -14 -5 -4 -17 -7 -25 -7 -8 0 -65 -4
-127 -8 l-112 -8 -7 28 c-8 30 -11 587 -5 712 l5 82 75 4 c42 1 90 4 106 5 17
1 57 -5 89 -13z m448 -85 c17 -47 34 -86 38 -88 4 -2 14 -23 21 -48 15 -51 26
-56 35 -16 4 15 15 43 25 62 11 19 30 67 42 105 l24 70 81 3 c45 2 82 0 82 -3
0 -4 -13 -37 -30 -75 -16 -38 -30 -77 -30 -87 0 -10 -30 -83 -66 -163 l-65
-145 -2 -280 c-1 -203 2 -290 12 -317 15 -45 16 -108 6 -346 -7 -167 -13 -200
-30 -172 -10 16 -22 12 -28 -11 -4 -16 -3 -18 9 -8 11 9 14 8 14 -9 0 -11 -7
-23 -16 -26 -8 -3 -13 -10 -10 -15 3 -5 -5 -16 -19 -25 -22 -15 -25 -15 -38 4
-8 11 -17 18 -20 15 -4 -3 -5 -2 -2 1 2 4 -6 16 -20 28 -22 20 -24 28 -24 116
0 52 -3 160 -7 240 -5 123 -4 153 10 195 15 42 18 95 19 325 l1 275 -33 70
c-79 166 -101 218 -106 246 -3 17 -19 59 -34 94 -16 35 -26 66 -23 70 3 3 39
4 80 3 l74 -3 30 -85z m1153 -7 c3 -43 8 -179 11 -301 6 -262 9 -272 80 -272
70 0 71 4 78 315 8 368 -2 329 84 333 l72 3 0 -69 c0 -37 5 -73 11 -79 7 -7 9
-92 7 -264 -4 -272 -9 -300 -59 -344 -14 -13 -20 -15 -15 -5 6 12 4 11 -6 -1
-16 -19 -110 -43 -140 -35 -12 3 -28 0 -35 -6 -10 -8 -20 -8 -39 1 -14 6 -40
11 -58 11 -23 0 -44 10 -67 30 -19 16 -39 30 -45 30 -6 0 -19 19 -29 43 -16
35 -19 79 -23 281 -3 164 0 242 7 249 6 6 11 44 11 84 l0 73 74 0 74 0 7 -77z
m771 69 c6 -4 17 -31 24 -59 8 -29 17 -53 21 -53 9 0 53 -160 84 -305 14 -66
30 -136 35 -155 6 -19 19 -75 30 -125 12 -49 23 -97 26 -106 3 -13 -2 -15 -28
-11 -18 3 -42 11 -54 18 -11 8 -24 11 -27 7 -4 -3 -7 0 -7 8 0 11 -2 11 -10
-1 -7 -11 -4 -17 13 -22 15 -4 7 -6 -25 -7 -44 -1 -48 1 -54 27 -3 15 -11 45
-17 67 l-12 40 -73 3 c-81 3 -78 6 -102 -90 l-13 -48 -54 0 c-46 0 -54 3 -51
18 2 9 8 15 13 12 6 -3 9 -8 7 -12 -3 -11 20 -10 38 2 12 8 11 11 -8 16 -14 4
-21 12 -18 20 9 23 -13 16 -29 -10 -19 -29 -55 -31 -55 -3 0 10 9 55 20 100
10 45 31 136 45 202 34 156 76 317 85 330 5 6 16 37 25 70 10 33 19 63 22 68
5 9 134 9 149 -1z m-363 -1018 c83 -5 107 -9 107 -20 0 -12 4 -12 21 -4 15 8
24 8 34 0 9 -8 15 -8 20 0 3 6 12 7 18 3 7 -4 21 -6 33 -5 32 4 70 -31 69 -65
-2 -49 -17 -103 -30 -103 -6 0 -108 -12 -226 -26 -118 -14 -241 -25 -274 -25
-214 0 -646 14 -675 23 -41 11 -204 28 -342 35 -76 3 -98 8 -98 19 0 8 -3 14
-7 14 -5 0 -9 18 -11 40 -1 22 2 40 7 40 6 0 8 6 5 13 -4 11 44 15 258 21 145
5 310 11 366 14 107 7 130 3 117 -18 -5 -9 -4 -11 3 -6 7 4 12 13 12 21 0 16
48 20 260 23 79 2 146 5 148 7 6 6 56 5 185 -1z m567 -19 c7 -9 13 -44 13 -81
1 -58 -2 -69 -23 -86 -45 -37 -55 -23 -58 85 l-3 97 29 0 c16 0 35 -7 42 -15z
m150 5 c0 -5 -9 -10 -20 -10 -16 0 -20 -7 -20 -35 0 -29 4 -35 23 -36 l22 0
-22 -9 c-18 -7 -23 -17 -23 -44 0 -28 4 -35 23 -39 16 -3 13 -5 -10 -6 l-33
-1 0 95 0 95 30 0 c17 0 30 -4 30 -10z m225 -66 c9 -87 20 -82 31 13 6 62 18
80 28 46 9 -33 16 -179 7 -153 -5 14 -9 37 -10 53 -2 43 -18 32 -25 -18 -11
-72 -36 -65 -36 10 0 45 -20 57 -21 13 -1 -43 -13 -86 -21 -73 -3 6 0 48 7 95
15 98 12 90 24 90 5 0 12 -34 16 -76z m175 -15 c0 -81 2 -90 18 -87 14 3 17
17 20 91 4 110 22 115 22 6 0 -89 -10 -119 -42 -119 -36 0 -47 29 -48 118 0
66 3 82 15 82 12 0 15 -17 15 -91z m200 81 c0 -6 -6 -10 -12 -9 -48 6 -52 -34
-8 -76 17 -16 30 -38 30 -50 0 -27 -33 -58 -56 -53 -29 5 -26 24 3 23 38 0 43
35 10 62 -36 28 -49 57 -37 87 7 20 16 26 40 26 16 0 30 -5 30 -10z m101 -90
c0 -51 -2 -95 -5 -98 -4 -3 -6 41 -6 98 0 57 2 101 5 98 3 -3 6 -47 6 -98z
m159 90 c0 -5 -9 -10 -20 -10 -25 0 -40 -29 -40 -80 0 -51 15 -80 41 -80 11 0
17 -4 14 -10 -11 -17 -43 -11 -59 12 -10 14 -16 44 -16 78 0 65 20 100 56 100
13 0 24 -4 24 -10z m-3922 -757 c-10 -2 -18 -11 -18 -18 0 -20 21 -30 31 -14
6 9 9 10 9 2 0 -20 -21 -26 -37 -10 -19 19 -10 47 14 46 17 -1 17 -2 1 -6z
m52 -3 c-13 -9 -13 -10 0 -10 13 0 13 -1 0 -10 -13 -9 -13 -11 0 -20 11 -7 11
-10 2 -10 -7 0 -15 7 -18 15 -8 20 2 45 18 45 9 0 8 -3 -2 -10z m56 -20 c1
-14 0 -19 -2 -12 -8 18 -27 15 -20 -4 3 -8 2 -12 -4 -9 -6 3 -10 17 -10 31 0
34 32 28 36 -6z m81 23 c-4 -3 -2 -12 5 -20 8 -10 8 -17 -1 -26 -10 -9 -11 -8
-6 4 4 10 2 20 -4 24 -15 8 -14 25 1 25 6 0 8 -3 5 -7z m38 -3 c-3 -5 0 -10 7
-10 9 0 9 -3 -2 -10 -13 -9 -13 -11 0 -21 13 -9 13 -10 0 -6 -18 4 -27 57 -10
57 6 0 8 -4 5 -10z m45 0 c-13 -9 -13 -10 0 -10 13 0 13 -1 0 -10 -13 -9 -13
-11 0 -20 13 -8 12 -10 -2 -10 -13 0 -18 8 -18 30 0 22 5 30 18 30 14 0 15 -2
2 -10z m50 -11 c0 -11 -4 -18 -9 -15 -5 4 -12 0 -14 -6 -3 -7 -6 -1 -6 15 -1
18 4 27 14 27 8 0 15 -9 15 -21z m66 6 c7 -18 -12 -45 -32 -45 -9 0 -14 11
-14 30 0 23 4 30 20 30 11 0 23 -7 26 -15z m81 4 c8 -8 13 -8 17 0 10 16 36
13 36 -4 0 -8 -7 -15 -15 -15 -8 0 -15 -5 -15 -12 0 -6 -3 -8 -7 -5 -3 4 -12
2 -18 -3 -17 -14 -45 -2 -45 19 0 31 26 41 47 20z m129 -4 c7 -18 -12 -45 -32
-45 -9 0 -14 11 -14 30 0 23 4 30 20 30 11 0 23 -7 26 -15z m29 5 c-3 -5 0
-10 7 -10 10 0 10 -2 -1 -9 -7 -5 -10 -14 -7 -20 4 -6 2 -11 -3 -11 -6 0 -11
14 -11 30 0 17 5 30 11 30 5 0 7 -4 4 -10z m95 -10 c0 7 2 11 5 8 3 -3 3 -13
-1 -22 -6 -15 -7 -15 -19 0 -11 16 -12 15 -19 -2 -6 -16 -9 -16 -16 -4 -6 8
-10 20 -10 25 0 6 4 3 10 -5 7 -12 10 -12 16 4 7 18 8 18 21 0 9 -12 13 -13
13 -4z m60 -19 c0 -3 -11 -6 -24 -6 -21 0 -22 2 -13 23 10 22 12 23 24 6 7
-10 13 -20 13 -23z m42 14 c4 -19 2 -23 -7 -15 -9 8 -15 7 -18 -2 -3 -7 -6 -1
-6 15 -1 35 25 37 31 2z m61 12 c3 11 5 7 6 -11 1 -28 0 -28 -18 -12 -18 17
-19 17 -24 -1 -3 -11 -5 -7 -6 11 -1 28 0 28 18 12 18 -17 19 -17 24 1z m32 3
c-3 -5 0 -10 7 -10 9 0 9 -3 -2 -10 -13 -9 -13 -11 0 -21 13 -9 13 -10 0 -6
-18 4 -27 57 -10 57 6 0 8 -4 5 -10z m57 -15 c4 -19 2 -23 -7 -15 -9 8 -15 7
-18 -2 -3 -7 -6 -1 -6 15 -1 35 25 37 31 2z m71 3 c4 -12 4 -24 2 -27 -3 -2
-5 1 -5 7 0 7 -5 12 -11 12 -6 0 -8 -7 -5 -16 3 -8 2 -12 -4 -9 -6 3 -10 17
-10 31 0 30 26 32 33 2z m45 -6 c3 -16 -1 -20 -12 -16 -19 7 -22 48 -3 42 6
-3 13 -14 15 -26z m57 18 c5 -8 11 -7 21 1 8 6 17 9 21 5 3 -3 1 -6 -7 -6 -10
0 -10 -3 0 -15 11 -13 11 -18 0 -28 -10 -9 -11 -9 -6 1 12 21 -5 35 -19 15
-13 -17 -13 -17 -12 2 2 15 -4 20 -20 19 -12 0 -20 3 -17 8 7 11 32 10 39 -2z
m106 3 c-8 -3 -9 -8 -3 -12 6 -4 5 -11 -4 -19 -12 -11 -14 -9 -14 13 0 17 5
25 18 24 12 0 13 -2 3 -6z m63 -46 c7 -6 6 -7 -4 -4 -8 2 -16 16 -17 33 -1 25
0 26 4 4 3 -14 10 -29 17 -33z m53 44 c10 9 13 5 12 -17 0 -23 -2 -25 -8 -11
-4 10 -11 18 -16 18 -5 0 -12 -8 -16 -18 -6 -14 -8 -11 -8 12 -1 22 2 26 11
17 8 -8 15 -9 25 -1z m110 -7 c3 -8 -2 -23 -11 -32 -15 -15 -17 -15 -32 0 -21
21 -11 48 16 48 11 0 23 -7 27 -16z m33 6 c-8 -5 -10 -10 -4 -10 7 0 15 -7 18
-16 5 -14 4 -15 -8 -5 -11 9 -15 9 -19 -1 -3 -7 -6 -1 -6 15 -1 19 4 27 17 27
14 0 15 -2 2 -10z m90 6 c0 -2 -9 -6 -20 -9 -11 -3 -18 -1 -14 4 5 9 34 13 34
5z m90 -38 c0 -14 -15 -8 -33 12 -9 11 -17 23 -17 26 0 8 49 -30 50 -38z m25
32 c-3 -5 0 -10 7 -10 9 0 9 -3 -2 -10 -13 -9 -13 -11 0 -20 13 -8 12 -10 -2
-10 -13 0 -18 8 -18 30 0 17 5 30 11 30 5 0 7 -4 4 -10z m80 0 c-3 -5 0 -10 7
-10 9 0 9 -3 -2 -10 -13 -9 -13 -11 0 -21 13 -9 13 -10 0 -6 -18 4 -27 57 -10
57 6 0 8 -4 5 -10z m64 3 c-4 -22 3 -24 23 -7 20 18 20 17 -2 -13 -26 -36 -32
-41 -24 -18 4 8 1 15 -5 15 -6 0 -11 7 -11 15 0 8 5 15 10 15 6 0 9 -3 9 -7z
m86 -3 c-3 -5 0 -10 7 -10 9 0 9 -3 -2 -10 -13 -9 -13 -11 0 -20 11 -7 11 -10
2 -10 -7 0 -15 7 -18 15 -6 16 1 45 11 45 4 0 3 -4 0 -10z m128 -19 c3 -14 0
-17 -14 -14 -21 6 -21 6 -13 27 7 19 20 13 27 -13z m49 4 c4 -19 2 -23 -7 -15
-9 8 -15 7 -18 -2 -3 -7 -6 -1 -6 15 -1 35 25 37 31 2z m51 14 c-6 -6 -10 -17
-9 -23 2 -6 1 -7 -2 -2 -2 4 -8 2 -13 -5 -6 -10 -9 -8 -9 9 0 13 4 21 9 17 5
-3 12 -1 16 5 3 5 9 10 13 10 3 0 1 -5 -5 -11z m35 -25 c-3 -14 -5 -12 -10 9
-3 19 -2 25 4 19 6 -6 8 -18 6 -28z m110 9 c10 -18 9 -20 -7 -16 -10 3 -22 0
-25 -6 -4 -6 -11 -11 -17 -11 -5 0 0 9 11 20 11 11 20 25 20 32 0 14 4 10 18
-19z m72 -17 c0 -6 -5 -3 -11 7 -10 18 -11 18 -25 0 -17 -23 -18 -10 -1 17 11
19 13 19 25 3 6 -9 12 -22 12 -27z m55 16 c1 -16 -2 -19 -11 -11 -8 7 -14 6
-17 -3 -3 -7 -6 -4 -6 8 -2 40 31 46 34 6z m35 18 c-13 -9 -13 -10 0 -10 13 0
13 -1 0 -10 -13 -9 -13 -11 0 -21 13 -9 13 -10 0 -6 -8 2 -16 16 -18 30 -3 21
1 27 15 27 15 0 16 -2 3 -10z m70 -37 c0 -3 -9 2 -20 12 -19 17 -20 17 -21 -1
0 -11 -3 -14 -6 -6 -3 7 -2 19 1 28 5 12 9 11 26 -6 11 -11 20 -23 20 -27z
m50 40 c-8 -3 -22 -11 -30 -17 -13 -10 -13 -9 -1 7 7 9 21 17 30 16 13 0 14
-1 1 -6z m40 -3 c-13 -9 -13 -10 0 -10 13 0 13 -1 0 -10 -13 -9 -13 -11 0 -21
13 -9 13 -10 0 -6 -8 2 -16 16 -18 30 -3 21 1 27 15 27 15 0 16 -2 3 -10z m75
-15 c0 -13 -6 -21 -17 -21 -12 0 -18 8 -18 21 0 13 6 21 18 21 11 0 17 -8 17
-21z m65 -14 c0 -3 -11 -6 -24 -6 -21 0 -22 2 -13 23 10 22 12 23 24 6 7 -10
13 -20 13 -23z m27 24 c0 -8 -4 -15 -9 -15 -4 0 -8 7 -8 15 0 8 4 15 8 15 5 0
9 -7 9 -15z m65 -2 c17 -15 18 -15 18 0 0 10 5 17 11 17 6 0 8 -7 5 -16 -3 -8
-2 -13 3 -9 5 3 12 -1 14 -7 3 -7 6 -3 6 10 1 26 13 28 32 6 12 -14 14 -14 20
3 6 13 8 9 8 -16 1 -32 0 -33 -16 -18 -16 13 -20 13 -31 1 -11 -12 -17 -13
-29 -3 -12 10 -16 10 -24 -2 -7 -11 -9 -11 -9 0 0 9 -4 10 -12 4 -7 -6 -27
-10 -45 -10 -27 0 -29 2 -17 14 8 8 14 21 14 29 0 19 29 18 52 -3z m402 -40
c0 -28 -6 -57 -12 -64 -7 -8 -27 -36 -45 -63 -37 -57 -52 -66 -60 -35 -4 16
-11 20 -25 17 -19 -5 -18 -2 5 46 39 77 102 158 121 154 13 -3 17 -14 16 -55z
m-3120 31 c9 -22 8 -23 -14 -17 -21 5 -25 15 -13 26 11 11 20 8 27 -9z m1123
-16 c-3 -7 -5 -2 -5 12 0 14 2 19 5 13 2 -7 2 -19 0 -25z m350 0 c-3 -7 -5 -2
-5 12 0 14 2 19 5 13 2 -7 2 -19 0 -25z m137 -11 c7 -6 6 -7 -4 -4 -8 2 -16
14 -17 28 -1 19 -1 20 4 4 3 -11 10 -24 17 -28z m234 31 c10 -10 15 -10 22 2
8 12 10 10 10 -7 0 -27 -12 -29 -31 -7 -12 14 -14 14 -20 -3 -7 -16 -8 -15 -8
5 -1 25 9 28 27 10z m-878 -23 c11 -13 10 -14 -4 -9 -9 3 -16 10 -16 15 0 13
6 11 20 -6z m471 -8 c-10 -9 -11 -8 -5 6 3 10 9 15 12 12 3 -3 0 -11 -7 -18z
m1004 -5 c-3 -3 -11 0 -18 7 -9 10 -8 11 6 5 10 -3 15 -9 12 -12z m-1380 -62
c0 -16 -3 -30 -7 -30 -10 0 -10 44 -1 53 3 4 7 7 7 7 1 0 1 -13 1 -30z m349 4
c-3 -35 -14 -44 -14 -12 0 21 7 38 15 38 1 0 1 -12 -1 -26z m-591 0 c-3 -9 0
-20 8 -25 9 -6 10 -9 2 -9 -6 0 -15 5 -18 10 -7 11 0 40 9 40 3 0 3 -7 -1 -16z
m67 6 c5 8 9 2 12 -14 4 -20 2 -24 -7 -16 -9 8 -15 7 -18 -2 -3 -7 -5 1 -5 17
0 17 2 24 5 16 4 -10 7 -10 13 -1z m70 -1 c0 8 3 12 6 8 3 -3 -1 -16 -10 -29
l-16 -22 0 29 c0 23 3 27 10 15 8 -12 10 -12 10 -1z m165 -13 c0 -15 -4 -21
-9 -16 -5 5 -6 16 -3 24 9 22 12 20 12 -8z m65 18 c0 -6 -39 -44 -46 -44 -4 0
-3 5 3 11 6 6 9 17 7 23 -3 7 4 12 16 12 11 0 20 -1 20 -2z m40 -19 c0 -8 -3
-16 -7 -18 -5 -3 -8 5 -8 18 0 13 3 21 8 18 4 -2 7 -10 7 -18z m31 -5 c-3 -3
-9 -9 -13 -14 -5 -5 -8 3 -8 18 0 22 2 25 14 14 8 -7 11 -15 7 -18z m82 -1 c4
-16 3 -19 -5 -11 -8 8 -15 9 -25 1 -16 -14 -17 -5 -2 22 12 23 24 18 32 -12z
m132 5 c0 -15 -4 -19 -11 -13 -6 5 -13 7 -15 4 -3 -2 -5 4 -5 13 0 10 7 18 16
18 9 0 15 -9 15 -22z m47 1 c3 -14 1 -25 -3 -25 -5 0 -9 11 -9 25 0 14 2 25 4
25 2 0 6 -11 8 -25z m38 15 c0 -5 -2 -10 -4 -10 -3 0 -8 5 -11 10 -3 6 -1 10
4 10 6 0 11 -4 11 -10z m55 0 c3 -5 2 -10 -4 -10 -5 0 -12 -8 -14 -17 -3 -11
-5 -7 -6 10 -1 27 12 36 24 17z m165 -34 c0 -6 -6 -3 -13 6 -12 15 -14 15 -25
0 -7 -9 -11 -12 -9 -7 2 6 7 19 11 30 7 20 8 20 22 1 8 -11 14 -25 14 -30z
m30 34 c5 8 9 2 12 -14 4 -20 2 -24 -7 -16 -9 8 -15 7 -18 -2 -3 -7 -5 1 -5
17 0 17 2 24 5 16 4 -10 7 -10 13 -1z m37 -27 c-3 -10 -5 -4 -5 12 0 17 2 24
5 18 2 -7 2 -21 0 -30z m-1052 9 c-3 -3 -11 0 -18 7 -9 10 -8 11 6 5 10 -3 15
-9 12 -12z m849 -6 c-3 -9 -10 -13 -15 -10 -5 3 -3 11 4 19 15 16 19 13 11 -9z
m241 5 c3 -5 2 -12 -3 -15 -5 -3 -9 1 -9 9 0 17 3 19 12 6z"/>
<path d="M1180 2308 c0 -18 5 -70 12 -115 12 -93 24 -102 71 -59 14 13 29 21
32 18 3 -4 3 2 -1 12 -5 14 -4 17 4 12 16 -9 16 74 1 107 -13 29 -58 57 -93
57 -23 0 -26 -4 -26 -32z"/>
<path d="M1200 1831 c0 -60 -3 -117 -6 -126 -5 -13 -2 -15 22 -9 16 4 35 11
42 17 6 5 12 6 12 2 0 -4 6 -2 14 5 8 6 12 19 9 27 -4 9 -2 14 3 11 13 -9 9
87 -6 122 -12 28 -54 60 -80 60 -6 0 -10 -40 -10 -109z"/>
<path d="M1842 2190 c-9 -12 -17 -24 -17 -28 -1 -4 -7 -32 -15 -62 -17 -70
-18 -280 -1 -340 7 -25 13 -46 12 -47 -2 -6 45 -48 52 -45 4 1 7 -3 7 -9 0
-27 81 7 87 36 1 6 10 30 19 55 21 56 23 281 4 350 -7 25 -13 50 -14 57 -8 50
-99 73 -134 33z"/>
<path d="M2456 2198 c12 -34 17 -419 6 -478 l-10 -52 36 6 c19 3 39 11 44 18
4 7 8 9 8 3 0 -12 21 22 51 83 44 91 35 258 -19 368 -26 53 -55 74 -105 74
-16 0 -18 -4 -11 -22z"/>
<path d="M2615 1580 c-18 -20 -18 -21 5 -12 13 5 26 14 28 20 6 19 -13 14 -33
-8z"/>
<path d="M2560 1575 c0 -8 7 -15 16 -15 14 0 14 3 4 15 -7 8 -14 15 -16 15 -2
0 -4 -7 -4 -15z"/>
<path d="M3074 681 c11 -12 24 -17 34 -13 14 6 13 7 -5 10 -13 2 -23 8 -23 13
0 5 -5 9 -12 9 -6 0 -4 -8 6 -19z"/>
<path d="M4834 1901 l-20 -119 41 -5 c22 -3 43 -3 47 1 7 7 -34 228 -44 237
-2 3 -13 -49 -24 -114z"/>
<path d="M5010 1550 c-8 -5 -12 -12 -9 -15 4 -3 12 1 19 10 14 17 11 19 -10 5z"/>
<path d="M5060 1545 c0 -8 5 -15 10 -15 6 0 10 7 10 15 0 8 -4 15 -10 15 -5 0
-10 -7 -10 -15z"/>
<path d="M5120 1548 c0 -9 5 -20 10 -23 13 -8 13 5 0 25 -8 13 -10 13 -10 -2z"/>
<path d="M4635 1260 c-4 -6 3 -10 14 -10 25 0 27 6 6 13 -8 4 -17 2 -20 -3z"/>
<path d="M4310 1251 c0 -6 5 -13 10 -16 6 -3 10 1 10 9 0 9 -4 16 -10 16 -5 0
-10 -4 -10 -9z"/>
<path d="M5090 1190 c0 -72 2 -81 18 -78 10 2 21 18 26 41 12 47 -2 111 -26
115 -16 3 -18 -6 -18 -78z"/>
<path d="M2580 499 c0 -24 23 -21 28 4 2 10 -3 17 -12 17 -10 0 -16 -9 -16
-21z"/>
<path d="M2662 503 c2 -10 10 -18 18 -18 22 0 18 29 -3 33 -14 3 -18 -1 -15
-15z"/>
<path d="M2790 500 c0 -13 5 -20 13 -17 6 2 12 10 12 17 0 7 -6 15 -12 18 -8
2 -13 -5 -13 -18z"/>
<path d="M3662 503 c2 -10 10 -18 18 -18 8 0 16 8 18 18 2 12 -3 17 -18 17
-15 0 -20 -5 -18 -17z"/>
<path d="M5070 499 c0 -18 2 -19 15 -9 15 12 12 30 -6 30 -5 0 -9 -10 -9 -21z"/>
<path d="M3960 3540 c0 -5 4 -10 9 -10 6 0 13 5 16 10 3 6 -1 10 -9 10 -9 0
-16 -4 -16 -10z"/>
<path d="M3922 3400 c-1 -14 5 -34 13 -44 8 -11 15 -27 15 -36 0 -14 11 -16
63 -11 19 2 4 19 -23 25 -36 7 -40 26 -6 26 34 0 44 20 15 27 -13 4 -26 5 -28
4 -2 -2 -8 3 -12 11 -7 10 -11 7 -16 -12 l-7 -25 -7 30 c-6 27 -7 28 -7 5z"/>
<path d="M6661 3308 c0 -10 -6 -18 -12 -18 -6 0 -7 -5 -2 -12 21 -35 13 -41
-50 -35 -34 4 -56 4 -49 1 17 -8 15 -31 -2 -37 -10 -4 -13 -1 -9 9 5 14 3 14
-16 3 -23 -15 -29 -31 -8 -23 20 7 43 -24 29 -38 -9 -9 -12 -8 -12 6 0 15 -3
16 -14 7 -11 -9 -15 -9 -19 1 -3 7 -6 2 -6 -12 -1 -14 -10 -32 -21 -40 -11 -8
-20 -22 -20 -31 0 -10 -6 -24 -13 -31 -7 -7 -13 -24 -14 -37 -1 -13 -7 -27
-13 -31 -6 -3 -14 -21 -20 -38 -5 -20 -5 -30 1 -27 5 4 9 1 9 -4 0 -6 -12 -11
-27 -12 -16 0 -22 -3 -15 -6 6 -2 12 -9 12 -15 0 -5 7 -17 16 -25 13 -13 13
-17 2 -24 -10 -7 -10 -9 0 -9 6 0 12 -7 12 -16 0 -10 6 -14 15 -10 8 3 14 1
12 -4 -1 -5 12 -17 30 -27 17 -10 49 -28 70 -40 22 -12 45 -28 51 -36 12 -15
8 -22 -65 -101 -10 -11 -12 -16 -6 -12 9 5 11 2 7 -8 -3 -9 -10 -14 -14 -11
-5 3 -11 1 -15 -5 -3 -5 -1 -10 5 -10 7 0 5 -6 -4 -15 -8 -8 -21 -15 -30 -15
-8 0 -17 -4 -21 -9 -3 -5 -30 -15 -60 -21 -30 -6 -55 -16 -55 -21 0 -5 -6 -9
-13 -9 -16 0 -40 -45 -42 -80 -2 -23 29 -81 47 -88 12 -5 10 -40 -4 -61 -9
-15 -6 -27 16 -66 38 -69 56 -150 56 -254 0 -174 -50 -303 -140 -365 -44 -30
-45 -32 -42 -81 2 -30 9 -55 18 -62 9 -6 20 -29 25 -50 7 -32 6 -40 -12 -55
-19 -16 -32 -85 -34 -183 0 -37 27 -46 42 -13 l10 23 12 -23 c13 -24 51 -30
51 -8 0 7 -5 37 -10 66 -8 41 -7 56 2 62 18 11 30 10 23 -2 -3 -5 -1 -10 4
-10 6 0 11 -20 11 -46 0 -63 13 -84 54 -84 39 0 59 28 26 37 -17 5 -20 14 -20
67 0 74 9 93 38 77 15 -8 21 -8 24 1 3 7 18 11 36 10 17 -1 50 4 74 12 24 8
54 16 68 18 14 2 27 6 30 9 5 6 115 28 159 32 13 1 26 8 29 15 2 6 8 9 14 6 5
-3 16 2 24 12 10 14 13 15 9 3 -4 -9 0 -16 8 -16 9 0 12 7 9 19 -2 10 -1 18 4
17 14 -3 75 27 69 34 -3 4 -2 5 1 3 3 -2 18 0 33 5 32 11 38 42 20 107 -9 32
-9 46 0 55 8 8 11 195 11 699 0 637 -1 688 -17 697 -14 7 -15 12 -5 24 8 9 9
18 3 21 -5 4 -8 21 -6 39 2 17 4 37 4 42 1 6 6 3 11 -5 8 -13 10 -12 10 3 0
10 -7 17 -17 17 -15 0 -16 2 -3 10 12 8 9 10 -12 10 -14 0 -29 -6 -32 -12 -3
-7 -3 -2 0 10 8 34 -31 70 -57 54 -22 -14 -32 -15 -25 -3 4 5 -2 7 -13 4 -13
-3 -25 5 -40 26 -13 17 -26 29 -31 26 -5 -3 -15 1 -23 10 -13 13 -16 11 -27
-15 -10 -25 -18 -30 -45 -30 -45 0 -65 9 -65 28 0 12 3 13 12 4 16 -16 25 -15
25 2 0 8 -3 15 -6 14 -21 -2 -30 5 -34 25 -3 14 -5 16 -6 5z m163 -56 c3 -5
-1 -9 -9 -9 -8 0 -15 4 -15 9 0 4 4 8 9 8 6 0 12 -4 15 -8z m-229 -42 c3 -6
-1 -7 -9 -4 -18 7 -21 14 -7 14 6 0 13 -4 16 -10z m-326 -1957 c6 -21 13 -65
16 -98 6 -53 5 -58 -8 -42 -17 21 -47 22 -47 2 0 -8 -5 -15 -11 -15 -7 0 -9
15 -4 43 14 93 27 147 35 147 5 0 14 -17 19 -37z m119 -56 c2 -70 6 -87 18
-87 8 0 13 -4 10 -9 -3 -4 -16 -8 -28 -7 -22 1 -23 5 -26 99 -2 77 0 98 10 95
9 -3 14 -32 16 -91z"/>
<path d="M6246 1218 c-10 -40 -7 -68 9 -68 12 0 14 8 9 43 -8 52 -10 54 -18
25z"/>
<path d="M7025 3180 c-3 -5 -1 -10 4 -10 6 0 11 5 11 10 0 6 -2 10 -4 10 -3 0
-8 -4 -11 -10z"/>
<path d="M5418 2105 l3 -95 39 0 c21 0 46 3 55 6 34 13 56 93 39 139 -9 23
-57 45 -101 45 l-38 0 3 -95z"/>
<path d="M6011 1905 l-2 -255 24 0 c35 0 71 32 98 87 21 42 24 62 23 158 0 93
-4 118 -23 163 -25 55 -71 102 -100 102 -17 0 -18 -18 -20 -255z"/>
<path d="M6280 1703 c0 -4 5 -15 10 -23 8 -13 10 -13 10 2 0 9 -4 20 -10 23
-5 3 -10 3 -10 -2z"/>
<path d="M6255 1660 c3 -5 -1 -10 -10 -10 -9 0 -14 -4 -11 -9 3 -5 -2 -12 -11
-15 -9 -4 -20 -2 -23 4 -8 13 -24 -17 -21 -37 1 -7 -3 -13 -9 -13 -6 0 -8 5
-4 12 5 8 2 9 -10 5 -10 -4 -20 -7 -23 -7 -3 0 0 -6 6 -14 10 -12 8 -17 -9
-26 -11 -6 -26 -8 -33 -4 -8 5 -7 2 2 -9 12 -15 11 -17 -3 -17 -9 0 -16 -4
-16 -9 0 -16 53 2 57 19 3 10 16 23 29 29 29 13 45 14 25 2 -7 -5 -12 -14 -10
-20 3 -8 21 0 48 19 34 25 41 34 30 41 -11 7 -9 13 11 29 21 17 23 21 10 30
-19 13 -33 13 -25 0z"/>
<path d="M5655 1590 c-3 -5 -1 -10 4 -10 6 0 11 5 11 10 0 6 -2 10 -4 10 -3 0
-8 -4 -11 -10z"/>
<path d="M5686 1574 c-4 -12 -13 -14 -32 -10 -37 10 -59 0 -60 -27 -2 -21 3
-24 39 -25 23 -1 45 3 50 10 7 10 10 10 14 1 4 -13 53 -19 53 -7 0 3 -5 14
-10 25 -9 15 -15 17 -30 9 -12 -7 -21 -7 -25 0 -3 5 1 10 9 10 9 0 16 7 16 15
0 20 -16 19 -24 -1z m-11 -34 c3 -5 -1 -10 -10 -10 -9 0 -13 5 -10 10 3 6 8
10 10 10 2 0 7 -4 10 -10z"/>
<path d="M6043 1543 c-15 -5 -17 -43 -3 -43 6 0 10 6 10 14 0 8 5 16 12 18 7
3 8 7 3 10 -6 3 -16 3 -22 1z"/>
</g>
</svg>
